<?xml version="1.0" encoding="UTF-8"?>
<svg width="200px" height="200px" viewBox="0 0 200 200" version="1.1" xmlns="http://www.w3.org/2000/svg" xmlns:xlink="http://www.w3.org/1999/xlink">
    <!-- Generator: Sketch 54.1 (76490) - https://sketchapp.com -->
    <title>Artboard</title>
    <desc>Created with Sketch.</desc>
    <g id="Artboard" stroke="none" stroke-width="1" fill="none" fill-rule="evenodd">
        <g id="ico_gnb">
            <g id="GNB-검정아이콘">
                <g id="카트">
                    <rect id="Rectangle-Copy-4" x="0" y="0" width="64" height="64"></rect>
                    <path d="M20.1259001,22.8701299 L22.8278342,36.6883117 L42.1751499,36.6883117 C43.3543196,36.6883117 44.374292,35.8803803 44.6258137,34.7471138 L47.2618386,22.8701299 L20.1259001,22.8701299 Z M19.5469142,19.9090909 L51,19.9090909 L47.5666102,35.3787153 C47.0132626,37.8719015 44.7693233,39.6493506 42.1751499,39.6493506 L20.3415712,39.6493506 L15.7096842,15.961039 L10,15.961039 L10,13 L18.1959471,13 L19.5469142,19.9090909 Z M25.0503536,48.5324675 C25.8815616,48.5324675 26.5553889,47.8696164 26.5553889,47.0519481 C26.5553889,46.2342797 25.8815616,45.5714286 25.0503536,45.5714286 C24.2191455,45.5714286 23.5453182,46.2342797 23.5453182,47.0519481 C23.5453182,47.8696164 24.2191455,48.5324675 25.0503536,48.5324675 Z M25.0503536,51 C22.8337987,51 21.036926,49.2323969 21.036926,47.0519481 C21.036926,44.8714992 22.8337987,43.1038961 25.0503536,43.1038961 C27.2669084,43.1038961 29.0637812,44.8714992 29.0637812,47.0519481 C29.0637812,49.2323969 27.2669084,51 25.0503536,51 Z M38.0939933,48.5324675 C38.9252014,48.5324675 39.5990287,47.8696164 39.5990287,47.0519481 C39.5990287,46.2342797 38.9252014,45.5714286 38.0939933,45.5714286 C37.2627853,45.5714286 36.588958,46.2342797 36.588958,47.0519481 C36.588958,47.8696164 37.2627853,48.5324675 38.0939933,48.5324675 Z M38.0939933,51 C35.8774385,51 34.0805657,49.2323969 34.0805657,47.0519481 C34.0805657,44.8714992 35.8774385,43.1038961 38.0939933,43.1038961 C40.3105482,43.1038961 42.107421,44.8714992 42.107421,47.0519481 C42.107421,49.2323969 40.3105482,51 38.0939933,51 Z" id="Combined-Shape" fill="#202020" fill-rule="nonzero"></path>
                </g>
                <g id="메뉴" transform="translate(64.000000, 0.000000)">
                    <rect id="Rectangle-Copy-4" x="0" y="0" width="64" height="64"></rect>
                    <path d="M12,17 L52,17 C52.5522847,17 53,17.4477153 53,18 L53,19 C53,19.5522847 52.5522847,20 52,20 L12,20 C11.4477153,20 11,19.5522847 11,19 L11,18 C11,17.4477153 11.4477153,17 12,17 Z M12,44 L52,44 C52.5522847,44 53,44.4477153 53,45 L53,46 C53,46.5522847 52.5522847,47 52,47 L12,47 C11.4477153,47 11,46.5522847 11,46 L11,45 C11,44.4477153 11.4477153,44 12,44 Z M15.5,31 L48.5,31 C49.0522847,31 49.5,31.4477153 49.5,32 L49.5,33 C49.5,33.5522847 49.0522847,34 48.5,34 L15.5,34 C14.9477153,34 14.5,33.5522847 14.5,33 L14.5,32 C14.5,31.4477153 14.9477153,31 15.5,31 Z" id="Combined-Shape" fill="#202020" fill-rule="nonzero"></path>
                </g>
                <g id="뒤로가기" transform="translate(128.000000, 0.000000)" fill-rule="nonzero">
                    <rect id="Rectangle" fill="#FFFFFF" opacity="0" x="0" y="0" width="64" height="64"></rect>
                    <rect id="Rectangle" fill="#202020" x="14" y="30.5" width="39" height="3" rx="1"></rect>
                    <rect id="Rectangle-Copy-3" fill="#202020" transform="translate(19.485281, 25.500000) rotate(-45.000000) translate(-19.485281, -25.500000) " x="8.98528129" y="23.9999997" width="21" height="3" rx="1"></rect>
                    <rect id="Rectangle-Copy-3" fill="#202020" transform="translate(19.485281, 38.500000) scale(-1, 1) rotate(135.000000) translate(-19.485281, -38.500000) " x="8.9852813" y="37.0000003" width="21" height="3" rx="1"></rect>
                </g>
            </g>
            <g id="(new)GNB-흰색아이콘" transform="translate(0.000000, 64.000000)">
                <g id="뒤로가기" transform="translate(128.000000, 0.000000)">
                    <g id="btn_back_w" transform="translate(10.000000, 16.000000)" fill-rule="nonzero">
                        <path d="M7.6066017,18.5 L18.263456,29.1568542 C18.6539803,29.5473785 18.6539803,30.1805435 18.263456,30.5710678 L17.5563492,31.2781746 C17.1658249,31.6686989 16.5326599,31.6686989 16.1421356,31.2781746 L2.7071068,17.8431458 C2.4771601,17.6131991 2.3826095,17.299128 2.4234551,17 C2.3826095,16.700872 2.4771601,16.3868009 2.7071068,16.1568542 L16.1421356,2.7218254 C16.5326599,2.3313011 17.1658249,2.3313011 17.5563492,2.7218254 L18.263456,3.4289322 C18.6539803,3.8194565 18.6539803,4.4526215 18.263456,4.8431458 L7.6066017,15.5 L43,15.5 C43.5522847,15.5 44,15.9477153 44,16.5 L44,17.5 C44,18.0522847 43.5522847,18.5 43,18.5 L7.6066017,18.5 Z" id="Combined-Shape" fill-opacity="0.5" fill="#000000"></path>
                        <path d="M5.6066017,16.5 L16.263456,27.1568542 C16.6539803,27.5473785 16.6539803,28.1805435 16.263456,28.5710678 L15.5563492,29.2781746 C15.1658249,29.6686989 14.5326599,29.6686989 14.1421356,29.2781746 L0.7071068,15.8431458 C0.4771601,15.6131991 0.3826095,15.299128 0.4234551,15 C0.3826095,14.700872 0.4771601,14.3868009 0.7071068,14.1568542 L14.1421356,0.7218254 C14.5326599,0.3313011 15.1658249,0.3313011 15.5563492,0.7218254 L16.263456,1.4289322 C16.6539803,1.8194565 16.6539803,2.4526215 16.263456,2.8431458 L5.6066017,13.5 L41,13.5 C41.5522847,13.5 42,13.9477153 42,14.5 L42,15.5 C42,16.0522847 41.5522847,16.5 41,16.5 L5.6066017,16.5 Z" id="Combined-Shape" fill="#FFFFFF"></path>
                    </g>
                    <rect id="Rectangle-Copy-4" x="0" y="0" width="64" height="64"></rect>
                </g>
                <g id="카트">
                    <g id="btn_shopping_w">
                        <rect id="Rectangle-Copy-4" x="0" y="0" width="64" height="64"></rect>
                        <g id="Group" transform="translate(10.000000, 13.000000)" stroke="#000000" stroke-opacity="0.5">
                            <path d="M0.333333333,0.598714193 L7.2662557,0.598714193 L14.3333333,26.3333333 L33.6666667,26.3333333 C37.2222222,26.3333333 39.4444444,24.3333333 40.3333333,20.3333333 C41.2222222,16.7777778 42.1111111,12.7777778 43,8.33333333 L9,8.33333333" id="Path-2" stroke-width="3"></path>
                            <circle id="Oval" stroke-width="2.5" cx="17.3333333" cy="35" r="2.75"></circle>
                            <circle id="Oval" stroke-width="2.5" cx="32.3333333" cy="35" r="2.75"></circle>
                        </g>
                        <g id="Group" transform="translate(8.000000, 11.000000)" stroke="#FFFFFF">
                            <path d="M0.333333333,0.598714193 L7.2662557,0.598714193 L14.3333333,26.3333333 L33.6666667,26.3333333 C37.2222222,26.3333333 39.4444444,24.3333333 40.3333333,20.3333333 C41.2222222,16.7777778 42.1111111,12.7777778 43,8.33333333 L9,8.33333333" id="Path-2" stroke-width="3"></path>
                            <circle id="Oval" stroke-width="2.5" cx="17.3333333" cy="35" r="2.75"></circle>
                            <circle id="Oval" stroke-width="2.5" cx="32.3333333" cy="35" r="2.75"></circle>
                        </g>
                    </g>
                </g>
                <g id="메뉴" transform="translate(64.000000, 0.000000)" fill-rule="nonzero">
                    <g id="btn_menu_w" transform="translate(10.000000, 16.000000)">
                        <path d="M3,2 L43,2 C43.5522847,2 44,2.4477153 44,3 L44,4 C44,4.5522847 43.5522847,5 43,5 L3,5 C2.4477153,5 2,4.5522847 2,4 L2,3 C2,2.4477153 2.4477153,2 3,2 Z M3,29 L43,29 C43.5522847,29 44,29.4477153 44,30 L44,31 C44,31.5522847 43.5522847,32 43,32 L3,32 C2.4477153,32 2,31.5522847 2,31 L2,30 C2,29.4477153 2.4477153,29 3,29 Z M9,16 L37,16 C37.5522847,16 38,16.4477153 38,17 L38,18 C38,18.5522847 37.5522847,19 37,19 L9,19 C8.4477153,19 8,18.5522847 8,18 L8,17 C8,16.4477153 8.4477153,16 9,16 Z" id="Combined-Shape" fill-opacity="0.5" fill="#000000"></path>
                        <path d="M1,0 L41,0 C41.5522847,0 42,0.4477153 42,1 L42,2 C42,2.5522847 41.5522847,3 41,3 L1,3 C0.4477153,3 0,2.5522847 0,2 L0,1 C0,0.4477153 0.4477153,0 1,0 Z M1,27 L41,27 C41.5522847,27 42,27.4477153 42,28 L42,29 C42,29.5522847 41.5522847,30 41,30 L1,30 C0.4477153,30 0,29.5522847 0,29 L0,28 C0,27.4477153 0.4477153,27 1,27 Z M7,14 L35,14 C35.5522847,14 36,14.4477153 36,15 L36,16 C36,16.5522847 35.5522847,17 35,17 L7,17 C6.4477153,17 6,16.5522847 6,16 L6,15 C6,14.4477153 6.4477153,14 7,14 Z" id="Combined-Shape" fill="#FFFFFF"></path>
                    </g>
                </g>
            </g>
        </g>
    </g>
</svg>