<?xml version="1.0" encoding="UTF-8"?>
<svg width="200px" height="200px" viewBox="0 0 200 200" version="1.1" xmlns="http://www.w3.org/2000/svg" xmlns:xlink="http://www.w3.org/1999/xlink">
    <!-- Generator: Sketch 54.1 (76490) - https://sketchapp.com -->
    <title>Artboard</title>
    <desc>Created with Sketch.</desc>
    <g id="Artboard" stroke="none" stroke-width="1" fill="none" fill-rule="evenodd">
        <g id="ico_arrow" fill-rule="nonzero">
            <g id="arrow_left_white" transform="translate(4.000000, 46.000000)">
                <polygon id="Combined-Shape" fill-opacity="0.5" fill="#000000" points="8.08291988 13.7496317 31.6395031 13.7496317 31.6395031 16.7496317 8.73072259 16.7496317 17.127674 25.1465831 15.0063536 27.2679034 2.66418055 14.9257303 15.0063536 2.58355726 17.127674 4.7048776"></polygon>
                <polygon id="Combined-Shape" fill="#FFFFFF" points="6.08291988 11.7496317 29.6395031 11.7496317 29.6395031 14.7496317 6.73072259 14.7496317 15.127674 23.1465831 13.0063536 25.2679034 0.66418055 12.9257303 13.0063536 0.58355726 15.127674 2.7048776"></polygon>
            </g>
            <g id="arrow_left_white" transform="translate(60.000000, 60.000000) scale(-1, 1) translate(-60.000000, -60.000000) translate(44.000000, 46.000000)">
                <polygon id="Combined-Shape" fill-opacity="0.5" fill="#000000" points="8.08291988 13.7496317 31.6395031 13.7496317 31.6395031 16.7496317 8.73072259 16.7496317 17.127674 25.1465831 15.0063536 27.2679034 2.66418055 14.9257303 15.0063536 2.58355726 17.127674 4.7048776"></polygon>
                <polygon id="Combined-Shape" fill="#FFFFFF" points="6.08291988 11.7496317 29.6395031 11.7496317 29.6395031 14.7496317 6.73072259 14.7496317 15.127674 23.1465831 13.0063536 25.2679034 0.66418055 12.9257303 13.0063536 0.58355726 15.127674 2.7048776"></polygon>
            </g>
            <g id="Group-3" transform="translate(5.000000, 7.000000)">
                <g id="icon_32/arrow_left">
                    <g id="Combined-Shape">
                        <g id="Group">
                            <g id="path-1-link" fill="#000000">
                                <polygon id="path-1" points="6.08291988 11.7496317 29.6395031 11.7496317 29.6395031 14.7496317 6.73072259 14.7496317 15.127674 23.1465831 13.0063536 25.2679034 0.66418055 12.9257303 13.0063536 0.58355726 15.127674 2.7048776"></polygon>
                            </g>
                            <g id="path-1-link" fill="#101010">
                                <polygon id="path-1" points="6.08291988 11.7496317 29.6395031 11.7496317 29.6395031 14.7496317 6.73072259 14.7496317 15.127674 23.1465831 13.0063536 25.2679034 0.66418055 12.9257303 13.0063536 0.58355726 15.127674 2.7048776"></polygon>
                            </g>
                        </g>
                    </g>
                </g>
            </g>
            <g id="Group-2">
                <g id="icon_32/arrow_left" transform="translate(60.000000, 20.000000) scale(-1, 1) translate(-60.000000, -20.000000) translate(40.000000, 0.000000)">
                    <g id="Combined-Shape" transform="translate(5.000000, 7.000000)">
                        <g id="Group">
                            <g id="path-3-link" fill="#000000">
                                <polygon id="path-3" points="6.08291988 11.7496317 29.6395031 11.7496317 29.6395031 14.7496317 6.73072259 14.7496317 15.127674 23.1465831 13.0063536 25.2679034 0.66418055 12.9257303 13.0063536 0.58355726 15.127674 2.7048776"></polygon>
                            </g>
                            <g id="path-3-link" fill="#101010">
                                <polygon id="path-3" points="6.08291988 11.7496317 29.6395031 11.7496317 29.6395031 14.7496317 6.73072259 14.7496317 15.127674 23.1465831 13.0063536 25.2679034 0.66418055 12.9257303 13.0063536 0.58355726 15.127674 2.7048776"></polygon>
                            </g>
                        </g>
                    </g>
                </g>
            </g>
        </g>
    </g>
</svg>