<?xml version="1.0" encoding="UTF-8"?>
<svg width="800px" height="800px" viewBox="0 0 800 800" version="1.1" xmlns="http://www.w3.org/2000/svg" xmlns:xlink="http://www.w3.org/1999/xlink">
    <!-- Generator: Sketch 54.1 (76490) - https://sketchapp.com -->
    <title>Artboard</title>
    <desc>Created with Sketch.</desc>
    <g id="Artboard" stroke="none" stroke-width="1" fill="none" fill-rule="evenodd">
        <g id="main">
            <g id="안내아이콘32*32" transform="translate(231.000000, 0.000000)">
                <g id="icon_pin" fill="#101010" fill-rule="nonzero">
                    <path d="M0,10.5 C9.00000003e-08,4.70101006 4.7010102,0 10.5,0 C16.2989898,0 20.9999999,4.70101006 21,10.5 C21,17.5 10.5,28 10.5,28 C10.5,28 0,17.5 0,10.5 Z M6.125,10.4999999 C6.125,12.9162457 8.0837542,14.8749999 10.5,14.8749999 C12.9162458,14.8749999 14.875,12.9162457 14.875,10.4999999 C14.875,8.0837541 12.9162458,6.12499988 10.5,6.12499988 C8.0837542,6.12499988 6.125,8.0837541 6.125,10.4999999 Z" id="Shape"></path>
                </g>
                <g id="icon_pin" transform="translate(28.000000, 0.000000)">
                    <circle id="Oval" fill="#101010" fill-rule="nonzero" cx="14" cy="14" r="14"></circle>
                    <path d="M14.5,0 C14.5,0 14.5,5 14.5,15" id="Path-5" stroke="#FFFFFF" stroke-width="3"></path>
                    <polyline id="Path-6" stroke="#FFFFFF" stroke-width="3" points="7 10 14.5 17 22 10"></polyline>
                </g>
            </g>
            <g id="리뷰별_on_off" transform="translate(387.000000, 5.000000)" fill-rule="nonzero">
                <g id="Group-7" transform="translate(0.000000, 38.000000)" fill="#008A00">
                    <g id="GR/Icon/Icon_star_40_on">
                        <polygon id="Star-2" points="17.5 28.1921066 6.6844052 34 8.75 21.6986844 0 12.9868444 12.0922026 11.1921066 17.5 0 22.9077974 11.1921066 35 12.9868444 26.25 21.6986844 28.3155948 34"></polygon>
                    </g>
                    <g id="GR/Icon/Icon_star_40_on" transform="translate(44.000000, 0.000000)">
                        <polygon id="Star-2" points="17.5 28.1921066 6.6844052 34 8.75 21.6986844 0 12.9868444 12.0922026 11.1921066 17.5 0 22.9077974 11.1921066 35 12.9868444 26.25 21.6986844 28.3155948 34"></polygon>
                    </g>
                    <g id="GR/Icon/Icon_star_40_on" transform="translate(88.000000, 0.000000)">
                        <polygon id="Star-2" points="17.5 28.1921066 6.6844052 34 8.75 21.6986844 0 12.9868444 12.0922026 11.1921066 17.5 0 22.9077974 11.1921066 35 12.9868444 26.25 21.6986844 28.3155948 34"></polygon>
                    </g>
                    <g id="GR/Icon/Icon_star_40_on" transform="translate(132.000000, 0.000000)">
                        <polygon id="Star-2" points="17.5 28.1921066 6.6844052 34 8.75 21.6986844 0 12.9868444 12.0922026 11.1921066 17.5 0 22.9077974 11.1921066 35 12.9868444 26.25 21.6986844 28.3155948 34"></polygon>
                    </g>
                    <g id="GR/Icon/Icon_star_40_on" transform="translate(176.000000, 0.000000)">
                        <polygon id="Star-2" points="17.5 28.1921066 6.6844052 34 8.75 21.6986844 0 12.9868444 12.0922026 11.1921066 17.5 0 22.9077974 11.1921066 35 12.9868444 26.25 21.6986844 28.3155948 34"></polygon>
                    </g>
                </g>
                <g id="Group-8" opacity="0.799999952" transform="translate(2.000000, 0.000000)" fill="#B0B0B0" stroke="#808080" stroke-width="2">
                    <g id="GR/Icon/Icon_star_40_off" transform="translate(176.000000, 0.000000)">
                        <polygon id="Star-2" points="24.9916164 30.1539736 23.1782304 19.3546468 30.8829015 11.6835768 20.2375933 10.1035886 15.5 0.29855237 10.7624067 10.1035886 0.11709847 11.6835768 7.8217696 19.3546468 6.0083836 30.1539736 15.5 25.0570467"></polygon>
                    </g>
                    <g id="GR/Icon/Icon_star_40_off" transform="translate(88.000000, 0.000000)">
                        <polygon id="Star-2" points="24.9916164 30.1539736 23.1782304 19.3546468 30.8829015 11.6835768 20.2375933 10.1035886 15.5 0.29855237 10.7624067 10.1035886 0.11709847 11.6835768 7.8217696 19.3546468 6.0083836 30.1539736 15.5 25.0570467"></polygon>
                    </g>
                    <g id="GR/Icon/Icon_star_40_off" transform="translate(44.000000, 0.000000)">
                        <polygon id="Star-2" points="24.9916164 30.1539736 23.1782304 19.3546468 30.8829015 11.6835768 20.2375933 10.1035886 15.5 0.29855237 10.7624067 10.1035886 0.11709847 11.6835768 7.8217696 19.3546468 6.0083836 30.1539736 15.5 25.0570467"></polygon>
                    </g>
                    <g id="GR/Icon/Icon_star_40_off">
                        <polygon id="Star-2" points="24.9916164 30.1539736 23.1782304 19.3546468 30.8829015 11.6835768 20.2375933 10.1035886 15.5 0.29855237 10.7624067 10.1035886 0.11709847 11.6835768 7.8217696 19.3546468 6.0083836 30.1539736 15.5 25.0570467"></polygon>
                    </g>
                    <g id="GR/Icon/Icon_star_40_off" transform="translate(132.000000, 0.000000)">
                        <polygon id="Star-2" points="24.9916164 30.1539736 23.1782304 19.3546468 30.8829015 11.6835768 20.2375933 10.1035886 15.5 0.29855237 10.7624067 10.1035886 0.11709847 11.6835768 7.8217696 19.3546468 6.0083836 30.1539736 15.5 25.0570467"></polygon>
                    </g>
                </g>
            </g>
            <g id="빌보드장바구니56*56" transform="translate(95.000000, 0.000000)">
                <g id="Group-2">
                    <g id="GR/lcon/lcon_cart_w_off">
                        <g id="GR/Header/btn_shopping">
                            <rect id="Rectangle-Copy-4" x="0" y="0" width="56" height="56"></rect>
                            <g id="Group-5" transform="translate(8.166667, 14.291667)" stroke="#FFFFFF">
                                <path d="M0,0.232208252 L6.06630707,0.232208252 L12.25,23.625 L29.1666667,23.625 C32.2777778,23.625 34.2222222,21.875 35,18.375 C35.7777778,15.2638889 36.5555556,11.7638889 37.3333333,7.875 L9.33333333,7.875" id="Path-2" stroke-width="3"></path>
                                <circle id="Oval" stroke-width="2.5" cx="14.875" cy="31.2083333" r="2.25"></circle>
                                <circle id="Oval" stroke-width="2.5" cx="28" cy="31.2083333" r="2.25"></circle>
                            </g>
                        </g>
                    </g>
                </g>
                <g id="GR/lcon/lcon_cart_b_off-2" transform="translate(56.000000, 0.000000)">
                    <g id="GR/lcon/lcon_cart_b_off">
                        <g id="GR/Header/btn_shopping">
                            <rect id="Rectangle-Copy-4" x="0" y="0" width="56" height="56"></rect>
                            <g id="Group-5" transform="translate(8.166667, 14.291667)" stroke="#202020">
                                <path d="M0,0.232208252 L6.06630707,0.232208252 L12.25,23.625 L29.1666667,23.625 C32.2777778,23.625 34.2222222,21.875 35,18.375 C35.7777778,15.2638889 36.5555556,11.7638889 37.3333333,7.875 L9.33333333,7.875" id="Path-2" stroke-width="3"></path>
                                <circle id="Oval" stroke-width="2.5" cx="14.875" cy="31.2083333" r="2.25"></circle>
                                <circle id="Oval" stroke-width="2.5" cx="28" cy="31.2083333" r="2.25"></circle>
                            </g>
                        </g>
                    </g>
                </g>
            </g>
            <g id="상단탑배너닫기버튼60*60" transform="translate(620.000000, 0.000000)" fill-rule="nonzero" stroke="#606060" stroke-width="2">
                <g id="Group">
                    <g id="icon/header/close" transform="translate(10.000000, 10.000000)">
                        <path d="M9,8 L31.627417,30.627417" id="Path"></path>
                        <path d="M9,8 L31.627417,30.627417" id="Path" transform="translate(20.313708, 19.313708) scale(-1, 1) translate(-20.313708, -19.313708) "></path>
                    </g>
                </g>
            </g>
            <g id="배송안내아이콘160*136" transform="translate(24.000000, 147.000000)">
                <g id="Icon_Delivery">
                    <g id="Group-8" transform="translate(61.000000, 47.500000) scale(-1, 1) translate(-61.000000, -47.500000) ">
                        <path d="M8.01691176,-1.13686838e-13 L78.4169118,-1.13464793e-13 C79.4110243,-1.13647409e-13 80.2169118,0.80588745 80.2169118,1.8 L80.2169118,62 L6.21691176,62 L6.21691176,1.8 C6.21691176,0.80588745 7.02279922,-1.09285375e-13 8.01691176,-1.13686838e-13 Z" id="Rectangle" fill="#BDD61A" fill-rule="nonzero"></path>
                        <path d="M116.870351,76.7241374 L116.87035,81.9999994 L120.290117,82 C121.234459,82 122,81.2126386 122,80.2413793 L121.999999,63.0077655 C121.999998,62.0534175 121.226347,61.2797656 120.271999,61.2797656 L112.611404,61.2797655 C111.939425,61.2797655 111.329745,60.8749484 111.053121,60.2450917 L100.42024,36.0346738 C100.143615,35.404817 99.5339355,35 98.8619562,35 L80,35 L80,40.275862 L96.6542181,40.275862 L106.37827,62.4169324 C107.484768,64.9363593 109.923487,66.5556275 112.611404,66.5556275 L116.87035,66.5556275 L116.870351,76.7241374 Z" id="Path" fill="#202020" fill-rule="nonzero"></path>
                        <path d="M23.1,34 C23.5970563,34 24,34.4029437 24,34.9 L24,38.1 C24,38.5970563 23.5970563,39 23.1,39 L0.9,39 C0.402943725,39 0,38.5970563 0,38.1 L0,34.9 C3.55271368e-15,34.4029437 0.402943725,34 0.9,34 L23.1,34 Z M32.1,43 C32.5970563,43 33,43.4029437 33,43.9 L33,47.1 C33,47.5970563 32.5970563,48 32.1,48 L16.9,48 C16.4029437,48 16,47.5970563 16,47.1 L16,43.9 C16,43.4029437 16.4029437,43 16.9,43 L32.1,43 Z M11.1,43 C11.5970563,43 12,43.4029437 12,43.9 L12,47.1 C12,47.5970563 11.5970563,48 11.1,48 L4.9,48 C4.40294373,48 4,47.5970563 4,47.1 L4,43.9 C4,43.4029437 4.40294373,43 4.9,43 L11.1,43 Z" id="Combined-Shape" fill="#202020" fill-rule="nonzero" transform="translate(16.500000, 41.000000) scale(-1, 1) translate(-16.500000, -41.000000) "></path>
                        <path d="M36.4411765,0 L49.4411765,0 L49.4411765,17.1 C49.4411765,17.5970563 49.0382327,18 48.5411765,18 L37.3411765,18 C36.8441202,18 36.4411765,17.5970563 36.4411765,17.1 L36.4411765,0 Z" id="Rectangle" fill="#202020" fill-rule="nonzero"></path>
                        <polygon id="Path" fill="#202020" fill-rule="nonzero" points="75 62 11 62 11 76 24.7179444 76 24.7179444 81 6 81 6 57 80 57 80 81 40.7687961 81 40.7687961 76 75 76"></polygon>
                        <path d="M32.9108456,90 C36.7374917,90 39.8809743,86.7923993 39.8809743,82.7857143 C39.8809743,78.7790293 36.7374917,75.5714286 32.9108456,75.5714286 C29.0841994,75.5714286 25.9407169,78.7790293 25.9407169,82.7857143 C25.9407169,86.7923993 29.0841994,90 32.9108456,90 Z M32.9108456,95 C26.2999261,95 20.9407169,89.531478 20.9407169,82.7857143 C20.9407169,76.0399506 26.2999261,70.5714286 32.9108456,70.5714286 C39.5217651,70.5714286 44.8809743,76.0399506 44.8809743,82.7857143 C44.8809743,89.531478 39.5217651,95 32.9108456,95 Z" id="Oval" fill="#202020" fill-rule="nonzero"></path>
                        <ellipse id="Oval" stroke="#202020" stroke-width="5" cx="97.1626838" cy="82.7857143" rx="9.47012868" ry="9.71428571"></ellipse>
                    </g>
                </g>
            </g>
            <g id="신메뉴알림76*76" transform="translate(0.000000, 300.000000)">
                <g id="Group-2">
                    <circle id="Oval" fill="#F2F2F2" fill-rule="nonzero" cx="38" cy="38" r="38"></circle>
                    <text id="신메뉴" fill="#606060" font-family="AppleSDGothicNeo-Regular, Apple SD Gothic Neo" font-size="18" font-weight="normal">
                        <tspan x="15.145" y="35">신메뉴</tspan>
                    </text>
                    <text id="알림" fill="#606060" font-family="AppleSDGothicNeo-Regular, Apple SD Gothic Neo" font-size="18" font-weight="normal">
                        <tspan x="22.93" y="56">알림</tspan>
                    </text>
                </g>
                <g id="Group-8" transform="translate(76.000000, 0.000000)">
                    <circle id="Oval" fill="#202020" fill-rule="nonzero" cx="38" cy="38" r="38"></circle>
                    <g id="신메뉴-알림" transform="translate(14.000000, 19.000000)" fill="#FFFFFF" font-family="AppleSDGothicNeo-Regular, Apple SD Gothic Neo" font-size="18" font-weight="normal">
                        <g id="신메뉴">
                            <text>
                                <tspan x="0.645" y="16">신메뉴</tspan>
                            </text>
                        </g>
                        <g id="알림" transform="translate(8.000000, 21.000000)">
                            <text>
                                <tspan x="0.43" y="16">알림</tspan>
                            </text>
                        </g>
                    </g>
                </g>
            </g>
            <g id="재입고재판매버튼64*64" transform="translate(0.000000, 390.000000)">
                <g id="PD/Component/btn_alarm_64_on" transform="translate(64.000000, 0.000000)">
                    <ellipse id="Oval" fill="#202020" fill-rule="evenodd" cx="32" cy="32.4923077" rx="32" ry="31.5076923"></ellipse>
                    <text id="재입고-알림" font-family="AppleSDGothicNeo-Bold, Apple SD Gothic Neo" font-size="16" font-weight="bold" fill="#FFFFFF">
                        <tspan x="11.24" y="29.7538462">재입고</tspan>
                        <tspan x="18.16" y="48.7538462">알림</tspan>
                    </text>
                </g>
                <g id="PD/Component/btn_alarm_64">
                    <circle id="Oval" fill="#F2F2F2" fill-rule="evenodd" cx="32" cy="32" r="32"></circle>
                    <text id="재입고-알림" font-family="AppleSDGothicNeo-Bold, Apple SD Gothic Neo" font-size="16" font-weight="bold" fill="#606060">
                        <tspan x="11.24" y="29">재입고</tspan>
                        <tspan x="18.16" y="48">알림</tspan>
                    </text>
                </g>
                <g id="Group-2" transform="translate(128.000000, 0.000000)">
                    <circle id="Oval" fill="#F2F2F2" cx="32" cy="32" r="32"></circle>
                    <text id="재판매-알림" font-family="AppleSDGothicNeo-Bold, Apple SD Gothic Neo" font-size="16" font-weight="bold" fill="#606060">
                        <tspan x="11.24" y="29">재판매</tspan>
                        <tspan x="18.16" y="48">알림</tspan>
                    </text>
                </g>
                <g id="Group-2" transform="translate(192.000000, 0.000000)">
                    <circle id="Oval" fill="#202020" cx="32" cy="32" r="32"></circle>
                    <text id="재판매-알림" font-family="AppleSDGothicNeo-Bold, Apple SD Gothic Neo" font-size="16" font-weight="bold" fill="#FFFFFF">
                        <tspan x="11.24" y="29">재판매</tspan>
                        <tspan x="18.16" y="48">알림</tspan>
                    </text>
                </g>
            </g>
        </g>
    </g>
</svg>