<?xml version="1.0" encoding="UTF-8"?>
<svg width="800px" height="800px" viewBox="0 0 800 800" version="1.1" xmlns="http://www.w3.org/2000/svg" xmlns:xlink="http://www.w3.org/1999/xlink">
    <!-- Generator: Sketch 54.1 (76490) - https://sketchapp.com -->
    <title>Artboard</title>
    <desc>Created with Sketch.</desc>
    <defs>
        <polyline id="path-1" points="41 14 20.2222222 34 7 21.3333333"></polyline>
    </defs>
    <g id="Artboard" stroke="none" stroke-width="1" fill="none" fill-rule="evenodd">
        <g id="ico_set01">
            <g id="글쓰기-아이콘40*40" transform="translate(760.000000, 0.000000)">
                <g id="MY/Icon/icon_review">
                    <rect id="Rectangle" x="0" y="0" width="40" height="40"></rect>
                    <g id="Group-Copy" stroke-width="1" fill-rule="evenodd" transform="translate(20.223318, 18.807691) rotate(-9.000000) translate(-20.223318, -18.807691) translate(7.723318, 6.807691)" stroke="#101010">
                        <polygon id="Path" stroke-width="3" fill-rule="nonzero" points="0.890960749 17.8533405 -1.79429417e-16 24 6.39011286 23.1433688 7.04001266 22.4700925 25 5.24193713 19.5008479 0 1.59085284 17.2281553"></polygon>
                        <path d="M14.9193433,5.46701657 L20.2571684,10.7884176" id="Path-7" stroke-width="3" fill-rule="nonzero"></path>
                    </g>
                </g>
            </g>
            <g id="선물아이콘88*88" transform="translate(252.000000, 0.000000)" fill="#FFFFFF" fill-rule="nonzero">
                <ellipse id="Oval-Copy" cx="43.83548" cy="43.9450687" rx="43.83548" ry="43.9450687"></ellipse>
                <g id="Group-21" transform="translate(24.906523, 26.966292)" stroke="#202020" stroke-width="1.5">
                    <rect id="Rectangle" x="3.73597841" y="13.732834" width="30.3859577" height="20.474407" rx="1"></rect>
                    <rect id="Rectangle" x="0.747195681" y="7.74032459" width="36.3635232" height="6.49188514" rx="1"></rect>
                    <rect id="Rectangle" x="15.6911093" y="7.74032459" width="6.4756959" height="26.4669164" rx="1"></rect>
                    <path d="M18.3406766,7.38375823 C17.7755919,5.45101994 17.2421901,4.15677912 16.7698548,3.53293431 C15.0637291,1.27954024 12.5692814,0.361020819 10.5473232,0.88868421 C8.77687502,1.35071192 7.63918947,2.92879597 7.72538821,4.54558015 C7.81466928,6.22017805 9.17099849,7.38375823 11.6554936,7.38375823 C16.1740902,7.38375823 16.9537179,7.38375823 18.3406766,7.38375823 Z" id="Path-2"></path>
                    <path d="M29.5387844,7.38375823 C28.9736997,5.45101994 28.440298,4.15677912 27.9679626,3.53293431 C26.2618369,1.27954024 23.7673893,0.361020819 21.7454311,0.88868421 C19.9749828,1.35071192 18.8372973,2.92879597 18.9234961,4.54558015 C19.0127771,6.22017805 20.3691064,7.38375823 22.8536015,7.38375823 C27.3721981,7.38375823 28.1518258,7.38375823 29.5387844,7.38375823 Z" id="Path-2" transform="translate(24.228851, 4.063682) scale(-1, 1) translate(-24.228851, -4.063682) "></path>
                </g>
            </g>
            <g id="기획전아이콘88*88" transform="translate(340.000000, 0.000000)" fill="#FFFFFF">
                <g id="PD/icon/icon_06">
                    <circle id="Oval-Copy" cx="44" cy="44" r="44"></circle>
                    <g id="Group-21" transform="translate(48.242641, 41.121320) rotate(-45.000000) translate(-48.242641, -41.121320) translate(22.742641, 23.621320)" stroke="#202020" stroke-width="1.5">
                        <path d="M3.96156991,10.6465934 C3.95945943,10.6467181 3.95945943,10.6467181 3.9573505,10.6468665 C3.81964798,10.6569497 3.71619202,10.7767536 3.72627513,10.9144561 L5.13792272,30.1929647 C5.14770095,30.3265034 5.26095417,30.4286293 5.39478955,30.424594 L36.6531242,29.482119 C36.7202504,29.480095 36.7837397,29.4511495 36.8292907,29.4018025 L47.7357978,17.5864199 C47.7456886,17.5757048 47.754623,17.5641449 47.7624987,17.5518724 C47.8370696,17.4356707 47.8033211,17.281019 47.6871194,17.2064481 L34.8337145,8.95794629 C34.7893966,8.92950587 34.7372299,8.91578568 34.6846543,8.9187425 L3.96156991,10.6465934 Z" id="Rectangle" transform="translate(25.763891, 19.671532) rotate(-10.000000) translate(-25.763891, -19.671532) "></path>
                        <path d="M1,0.75 C0.861928813,0.75 0.75,0.861928813 0.75,1 L0.75,25 C0.75,25.1380712 0.861928813,25.25 1,25.25 L35.5621688,25.25 C35.6319433,25.25 35.698543,25.2208406 35.7458696,25.16957 L46.8227927,13.16957 C46.9111916,13.0738046 46.9111916,12.9261954 46.8227927,12.83043 L35.7458696,0.830429974 C35.698543,0.779159423 35.6319433,0.75 35.5621688,0.75 L1,0.75 Z" id="Rectangle"></path>
                        <path d="M16.0602038,17.8564554 L19.3180195,16.1437203 L22.5758352,17.8564554 C22.6245003,17.8820401 22.6802423,17.8908688 22.7344317,17.8815746 C22.8705159,17.8582343 22.9619128,17.7289954 22.9385726,17.5929112 L22.3163851,13.9652801 L24.9520134,11.3961775 C24.9913843,11.3578004 25.0170061,11.3075148 25.0249122,11.2531055 C25.0447666,11.1164693 24.9500963,10.9896086 24.8134601,10.9697542 L21.1711114,10.4404899 L19.5422035,7.13996213 C19.5178709,7.09065897 19.4779641,7.05075209 19.4286609,7.02641953 C19.3048475,6.96531396 19.154941,7.01614871 19.0938355,7.13996213 L17.4649276,10.4404899 L13.8225789,10.9697542 C13.7681697,10.9776603 13.7178841,11.0032821 13.6795069,11.042653 C13.5831316,11.1415239 13.5851547,11.2998022 13.6840256,11.3961775 L16.3196538,13.9652801 L15.6974664,17.5929112 C15.6881722,17.6471007 15.6970009,17.7028427 15.7225856,17.7515078 C15.7868358,17.8737189 15.9379926,17.9207056 16.0602038,17.8564554 Z" id="Star" transform="translate(19.318019, 12.991052) rotate(15.000000) translate(-19.318019, -12.991052) "></path>
                        <circle id="Oval" cx="39" cy="13" r="1.25"></circle>
                    </g>
                </g>
            </g>
            <g id="비디오아이콘28*28" transform="translate(614.000000, 0.000000)" fill="#FFFFFF" fill-rule="nonzero">
                <path d="M14.1852365,7.05565876 L22.0379414,21.0749839 C22.091751,21.1710495 22.0573011,21.2924388 21.9609953,21.3461142 C21.9312174,21.3627107 21.8976749,21.371424 21.8635643,21.371424 L6.15815443,21.371424 C6.04783538,21.371424 5.95840412,21.2822158 5.95840412,21.1721719 C5.95840412,21.1381462 5.96713932,21.1046873 5.98377731,21.0749839 L13.8364822,7.05565876 C13.8902919,6.95959311 14.0119846,6.92522909 14.1082904,6.97890457 C14.1405658,6.99689308 14.167203,7.02346386 14.1852365,7.05565876 Z" id="Triangle-2" transform="translate(14.010877, 14.162491) rotate(90.000000) translate(-14.010877, -14.162491) "></path>
            </g>
            <g id="메뉴리스트형아이콘64*64" transform="translate(0.000000, 270.000000)">
                <g id="Group-5" transform="translate(256.000000, 0.000000)">
                    <ellipse id="Oval" fill="#202020" cx="31.8754864" cy="32" rx="31.8754864" ry="32"></ellipse>
                    <text id="재입고-알림" font-family="AppleSDGothicNeo-Bold, Apple SD Gothic Neo" font-size="16" font-weight="bold" fill="#FFFFFF">
                        <tspan x="11.1154864" y="29">재입고</tspan>
                        <tspan x="18.0354864" y="48">알림</tspan>
                    </text>
                </g>
                <g id="Group-5" transform="translate(192.000000, 0.000000)">
                    <ellipse id="Oval" fill="#F2F2F2" cx="31.8754864" cy="32" rx="31.8754864" ry="32"></ellipse>
                    <text id="재입고-알림" font-family="AppleSDGothicNeo-Bold, Apple SD Gothic Neo" font-size="16" font-weight="bold" fill="#606060">
                        <tspan x="11.1154864" y="29">재입고</tspan>
                        <tspan x="18.0354864" y="48">알림</tspan>
                    </text>
                </g>
                <g id="Group-5" transform="translate(384.000000, 0.000000)">
                    <ellipse id="Oval" fill="#202020" cx="31.8754864" cy="32" rx="31.8754864" ry="32"></ellipse>
                    <text id="재판매-알림" font-family="AppleSDGothicNeo-Bold, Apple SD Gothic Neo" font-size="16" font-weight="bold" fill="#FFFFFF">
                        <tspan x="11.1154864" y="29">재판매</tspan>
                        <tspan x="18.0354864" y="48">알림</tspan>
                    </text>
                </g>
                <g id="Group-5" transform="translate(320.000000, 0.000000)">
                    <ellipse id="Oval" fill="#F2F2F2" cx="31.8754864" cy="32" rx="31.8754864" ry="32"></ellipse>
                    <text id="재판매-알림" font-family="AppleSDGothicNeo-Bold, Apple SD Gothic Neo" font-size="16" font-weight="bold" fill="#606060">
                        <tspan x="11.1154864" y="29">재판매</tspan>
                        <tspan x="18.0354864" y="48">알림</tspan>
                    </text>
                </g>
                <g id="PD/Component/btn_buy_64">
                    <g id="PD/Component/btn_buy">
                        <circle id="Oval" fill="#F2F2F2" cx="32" cy="32" r="32"></circle>
                        <g id="GR/Icon/Icon_cart_40_off" transform="translate(12.000000, 14.000000)" stroke="#606060">
                            <g id="Group-5" transform="translate(2.000000, 5.000000)">
                                <path d="M0,0 L5.26810877,0 L10.6381579,20.0509644 L25.3289474,20.0509644 C28.0307018,20.0509644 29.7192982,18.5509644 30.3947368,15.5509644 C31.0701754,12.8842977 31.745614,9.88429769 32.4210526,6.55096436 L8.10526316,6.55096436" id="Path-2" stroke-width="3" fill-rule="nonzero"></path>
                                <ellipse id="Oval" stroke-width="2.5" fill-rule="nonzero" cx="12.9177632" cy="26.75" rx="1.78947368" ry="1.75"></ellipse>
                                <ellipse id="Oval" stroke-width="2.5" fill-rule="nonzero" cx="24.3157895" cy="26.75" rx="1.78947368" ry="1.75"></ellipse>
                            </g>
                        </g>
                    </g>
                </g>
                <g id="PD/Component/btn_like_64" transform="translate(64.000000, 0.000000)">
                    <g id="PD/Component/btn_like">
                        <circle id="Oval" fill="#F2F2F2" cx="32" cy="32" r="32"></circle>
                        <g id="GR/Icon/Icon_like_off_40_off" transform="translate(12.000000, 13.000000)" stroke="#606060" stroke-width="3">
                            <path d="M19.928827,32.0727508 L32.3789777,19.9898776 C34.9847852,17.104286 34.9847852,12.3179529 32.3789782,9.43236177 C29.8516309,6.63365719 25.7779401,6.63365719 23.2388604,9.44520341 L19.89921,13.0582992 L18.8003249,11.8126782 L16.7510205,9.4895615 C14.2236045,6.69347834 10.1490865,6.69347834 7.62191169,9.48929451 C5.01491833,12.3748054 5.01491833,17.1624318 7.55736935,19.9808167 L19.928827,32.0727508 Z" id="Stroke-9"></path>
                        </g>
                    </g>
                </g>
                <g id="Group-11" transform="translate(128.000000, 0.000000)">
                    <circle id="Oval" fill="#F2F2F2" cx="32" cy="32" r="32"></circle>
                    <path d="M31.7621603,45.2394174 L44.2123111,33.1565443 C46.8181185,30.2709527 46.8181185,25.4846196 44.2123115,22.5990284 C41.6849643,19.8003239 37.6112734,19.8003239 35.0721937,22.6118701 L31.7325433,26.2249658 L30.6336582,24.9793448 L28.5843539,22.6562282 C26.0569378,19.860145 21.9824198,19.860145 19.455245,22.6559612 C16.8482517,25.5414721 16.8482517,30.3290985 19.3907027,33.1474834 L31.7621603,45.2394174 Z" id="Stroke-9" stroke="#111111" stroke-width="3" fill="#111111"></path>
                </g>
            </g>
            <g id="목록솔팅아이콘_off40*40" transform="translate(620.000000, 560.000000)">
                <g id="Group-9" transform="translate(60.000000, 0.000000)">
                    <g id="PD/Icon/viewmode_full_off" transform="translate(10.000000, 10.000000)">
                        <rect id="Rectangle" x="0" y="0" width="39.75" height="40"></rect>
                        <path d="M2.98125,3 L2.98125,27 L36.76875,27 L36.76875,3 L2.98125,3 Z M2.98125,32 L2.98125,37 L36.76875,37 L36.76875,32 L2.98125,32 Z" id="Combined-Shape" stroke="#606060" stroke-width="2" fill="#FFFFFF" fill-rule="nonzero"></path>
                    </g>
                </g>
                <g id="Group-10" transform="translate(120.000000, 0.000000)">
                    <g id="PD/Icon/viewmode_list_off" transform="translate(10.000000, 10.000000)">
                        <rect id="Rectangle" x="0" y="0" width="39.75" height="40"></rect>
                        <path d="M2.98125,3 L2.98125,17 L36.76875,17 L36.76875,3 L2.98125,3 Z M2.98125,23 L2.98125,37 L36.76875,37 L36.76875,23 L2.98125,23 Z" id="Combined-Shape" stroke="#606060" stroke-width="2" fill="#FFFFFF" fill-rule="nonzero"></path>
                    </g>
                </g>
                <g id="Group-12">
                    <g id="PD/Icon/viewmode_square_off" transform="translate(10.000000, 10.000000)">
                        <rect id="Rectangle" x="0" y="0" width="39.75" height="40"></rect>
                        <path d="M2.98125,23 L2.98125,37 L16.89375,37 L16.89375,23 L2.98125,23 Z M22.85625,23 L22.85625,37 L36.76875,37 L36.76875,23 L22.85625,23 Z M2.98125,3 L2.98125,17 L16.89375,17 L16.89375,3 L2.98125,3 Z M22.85625,3 L22.85625,17 L36.76875,17 L36.76875,3 L22.85625,3 Z" id="Combined-Shape" stroke="#606060" stroke-width="2" fill="#FFFFFF" fill-rule="nonzero"></path>
                    </g>
                </g>
            </g>
            <g id="목록솔팅아이콘_on40*40" transform="translate(620.000000, 620.000000)">
                <g id="Group-13" transform="translate(60.000000, 0.000000)">
                    <g id="PD/Icon/viewmode_full_on" transform="translate(10.000000, 10.000000)">
                        <rect id="Rectangle" x="0" y="0" width="39.75" height="40"></rect>
                        <path d="M1.9875,2 L37.7625,2 L37.7625,28 L1.9875,28 L1.9875,2 Z M1.9875,31 L37.7625,31 L37.7625,38 L1.9875,38 L1.9875,31 Z" id="Combined-Shape" fill="#202020" fill-rule="nonzero"></path>
                    </g>
                </g>
                <g id="Group-15">
                    <g id="PD/Icon/viewmode_square_on" transform="translate(10.000000, 10.000000)">
                        <rect id="Rectangle" x="0" y="0" width="39.75" height="40"></rect>
                        <path d="M1.9875,22 L17.8875,22 L17.8875,38 L1.9875,38 L1.9875,22 Z M21.8625,22 L37.7625,22 L37.7625,38 L21.8625,38 L21.8625,22 Z M1.9875,2 L17.8875,2 L17.8875,18 L1.9875,18 L1.9875,2 Z M21.8625,2 L37.7625,2 L37.7625,18 L21.8625,18 L21.8625,2 Z" id="Combined-Shape" fill="#202020" fill-rule="nonzero"></path>
                    </g>
                </g>
                <g id="Group-14" transform="translate(120.000000, 0.000000)">
                    <g id="PD/Icon/viewmode_list_on" transform="translate(10.000000, 10.000000)">
                        <rect id="Rectangle" x="0" y="0" width="39.75" height="40"></rect>
                        <path d="M1.9875,2 L37.7625,2 L37.7625,18 L1.9875,18 L1.9875,2 Z M1.9875,22 L37.7625,22 L37.7625,38 L1.9875,38 L1.9875,22 Z" id="Combined-Shape" fill="#202020" fill-rule="nonzero"></path>
                    </g>
                </g>
            </g>
            <g id="상세플로팅닫기104*104" transform="translate(542.000000, 286.000000)">
                <g id="GR/Header/btn_close_w">
                    <g id="icon/header/menu_green">
                        <polygon id="Shape" points="0 0 51.8055672 0 51.8055672 51.9350811 0 51.9350811"></polygon>
                        <g id="Group" transform="translate(10.958870, 9.987516)" fill="#FFFFFF" fill-rule="nonzero">
                            <polygon id="Rectangle-2" transform="translate(15.374117, 15.980025) rotate(-45.000000) translate(-15.374117, -15.980025) " points="13.9707757 -3.96831705 16.8272708 -3.97188321 16.7774578 35.9283662 13.9209627 35.9319323"></polygon>
                            <polygon id="Rectangle-2" transform="translate(15.374118, 15.980025) scale(-1, 1) rotate(-45.000000) translate(-15.374118, -15.980025) " points="13.9707764 -3.9683165 16.8272716 -3.97188266 16.7774586 35.9283667 13.9209634 35.9319328"></polygon>
                        </g>
                    </g>
                </g>
            </g>
            <g id="(new)플러스마이너스" transform="translate(640.000000, 305.000000)" fill="#808080" fill-rule="nonzero">
                <polygon id="Combined-Shape" points="55 7 55 0 57 0 57 7 64 7 64 9 57 9 57 16 55 16 55 9 48 9 48 7"></polygon>
                <rect id="Rectangle-5-Copy-3" x="0" y="7" width="16" height="2"></rect>
            </g>
            <g id="상세아이콘32*32" transform="translate(661.000000, 0.000000)" stroke-width="3">
                <g id="icon_time" transform="translate(31.000000, 0.001248)" stroke="#202020">
                    <circle id="Oval" cx="16" cy="16" r="14.5"></circle>
                    <polyline id="Path-3" fill-rule="nonzero" points="15.5675676 7.91891892 15.5675676 17.1229972 22.6486486 17.1229972"></polyline>
                </g>
                <g id="icon_time" transform="translate(63.000000, 0.001248)" stroke="#FFFFFF">
                    <circle id="Oval" cx="16" cy="16" r="14.5"></circle>
                    <polyline id="Path-3" fill-rule="nonzero" points="15.5675676 7.91891892 15.5675676 17.1229972 22.6486486 17.1229972"></polyline>
                </g>
                <g id="icon_people" transform="translate(0.000000, 2.001248)" stroke="#202020">
                    <path d="M27.4340971,26.5 C26.8233665,19.6377049 22.0042923,14.5 14.5,14.5 C6.99570772,14.5 2.17663351,19.6377049 1.56590289,26.5 C9.19970935,26.5 9.53116868,26.5 15.0192057,26.5 C20.1017347,26.5 20.4330742,26.5 27.4340971,26.5 Z" id="Oval"></path>
                    <circle id="Oval-Copy-4" cx="14.5" cy="7.5" r="6"></circle>
                </g>
            </g>
            <g id="매운맛단계아이콘32*32" transform="translate(708.000000, 351.000000)" fill-rule="nonzero">
                <g id="spicy_high" transform="translate(64.000000, 0.000000)">
                    <path d="M13.8,9.1 C14.2,7.4 14.2,6.3 14.2,6.3 C14.2,6.3 21.8,13.1 21.8,19.2 C21.8,19.3 21.8,19.4 21.8,19.5 C21.8,19.6 21.8,19.7 21.8,19.8 C21.8,25.9 17,30.9 11,30.9 C5,30.9 0.2,26.1 0.2,17.7 C0.2,9.3 11,0.1 11,0.1 C11,0.1 11,4.6 13.8,9.1 Z" id="Path" fill="#EE0700"></path>
                    <g id="Group" fill="#101010">
                        <path d="M14.2,6.3 C14.2,6.3 14.2,7.5 13.8,9.1 C11,4.6 11,0.1 11,0.1 C11,0.1 0.2,9.3 0.2,17.7 C0.2,26.1 5,30.9 11,30.9 C17,30.9 21.8,25.9 21.8,19.8 C21.8,19.7 21.8,19.6 21.8,19.5 C21.8,19.4 21.8,19.3 21.8,19.2 C21.8,13.1 14.2,6.3 14.2,6.3 Z M19.9,19.5 C19.9,19.6 19.9,19.7 19.9,19.7 C19.9,24.8 15.9,29 10.9,29 C5.5,29 1.9,24.4 1.9,17.7 C1.9,14.7 3.6,11 6.9,6.9 C7.9,5.8 8.9,4.7 9.7,3.9 C10.1,5.7 10.9,7.9 12.2,10.1 L14.4,13.7 L15.3,10.1 C17.4,12.6 19.9,16.2 19.9,19.2 C19.9,19.3 19.9,19.4 19.9,19.5 Z" id="Shape"></path>
                        <path d="M14.1,16.8 C13.8,16.2 13.4,15.6 13,15.1 C12.8,14.8 12.6,14.5 12.5,14.4 L11,12.6 L9.6,14.4 C9.5,14.5 9.3,14.8 9.1,15.1 C8.7,15.7 8.3,16.3 8,16.8 C7.5,17.6 7.2,18.3 6.9,18.9 C6.4,20 6.2,21 6.2,21.8 C6.2,25.1 8.2,27.4 11.1,27.4 C14,27.4 16,25.1 16,21.8 C16,20.9 15.8,20 15.3,18.9 C15,18.3 14.6,17.6 14.1,16.8 Z M11,25.7 C9.2,25.7 7.9,24.2 7.9,21.9 C7.9,21.3 8.1,20.5 8.5,19.7 C8.7,19.1 9.1,18.5 9.5,17.8 C9.8,17.3 10.2,16.7 10.6,16.2 C10.8,15.9 11,15.7 11.1,15.5 L11.1,15.5 C11.2,15.6 11.4,15.8 11.6,16.1 C12,16.6 12.3,17.2 12.7,17.7 C13.1,18.4 13.4,19 13.7,19.6 C14.1,20.5 14.3,21.2 14.3,21.8 C14.1,24.2 12.9,25.7 11,25.7 Z" id="Shape"></path>
                    </g>
                </g>
                <g id="spicy_low">
                    <path d="M1.2,23.8 C2.9,28.4 6.6,30.9 11,30.9 C15.6,30.9 19.5,27.9 21.1,23.8 L1.2,23.8 L1.2,23.8 Z" id="Path" fill="#EE0700"></path>
                    <g id="Group" fill="#101010">
                        <path d="M14.2,6.3 C14.2,6.3 14.2,7.5 13.8,9.1 C11,4.6 11,0.1 11,0.1 C11,0.1 0.2,9.3 0.2,17.7 C0.2,26.1 5,30.9 11,30.9 C17,30.9 21.8,25.9 21.8,19.8 C21.8,19.7 21.8,19.6 21.8,19.5 C21.8,19.4 21.8,19.3 21.8,19.2 C21.8,13.1 14.2,6.3 14.2,6.3 Z M19.9,19.5 C19.9,19.6 19.9,19.7 19.9,19.7 C19.9,24.8 15.9,29 10.9,29 C5.5,29 1.9,24.4 1.9,17.7 C1.9,14.7 3.6,11 6.9,6.9 C7.9,5.8 8.9,4.7 9.7,3.9 C10.1,5.7 10.9,7.9 12.2,10.1 L14.4,13.7 L15.3,10.1 C17.4,12.6 19.9,16.2 19.9,19.2 C19.9,19.3 19.9,19.4 19.9,19.5 Z" id="Shape"></path>
                        <path d="M14.1,16.8 C13.8,16.2 13.4,15.6 13,15.1 C12.8,14.8 12.6,14.5 12.5,14.4 L11,12.6 L9.6,14.4 C9.5,14.5 9.3,14.8 9.1,15.1 C8.7,15.7 8.3,16.3 8,16.8 C7.5,17.6 7.2,18.3 6.9,18.9 C6.4,20 6.2,21 6.2,21.8 C6.2,25.1 8.2,27.4 11.1,27.4 C14,27.4 16,25.1 16,21.8 C16,20.9 15.8,20 15.3,18.9 C15,18.3 14.6,17.6 14.1,16.8 Z M11,25.7 C9.2,25.7 7.9,24.2 7.9,21.9 C7.9,21.3 8.1,20.5 8.5,19.7 C8.7,19.1 9.1,18.5 9.5,17.8 C9.8,17.3 10.2,16.7 10.6,16.2 C10.8,15.9 11,15.7 11.1,15.5 L11.1,15.5 C11.2,15.6 11.4,15.8 11.6,16.1 C12,16.6 12.3,17.2 12.7,17.7 C13.1,18.4 13.4,19 13.7,19.6 C14.1,20.5 14.3,21.2 14.3,21.8 C14.1,24.2 12.9,25.7 11,25.7 Z" id="Shape"></path>
                    </g>
                </g>
                <g id="spicy_middle" transform="translate(32.000000, 0.000000)">
                    <path d="M1,17 L21.2,17 L21.2,19.8 C21.2,25.4 16.7,30 11.1,30 L11.1,30 C5.5,30 1,25.4 1,19.8 L1,17 Z" id="Rectangle" fill="#EE0700"></path>
                    <g id="Group" fill="#101010">
                        <path d="M14.2,6.3 C14.2,6.3 14.2,7.5 13.8,9.1 C11,4.6 11,0.1 11,0.1 C11,0.1 0.2,9.3 0.2,17.7 C0.2,26.1 5,30.9 11,30.9 C17,30.9 21.8,25.9 21.8,19.8 C21.8,19.7 21.8,19.6 21.8,19.5 C21.8,19.4 21.8,19.3 21.8,19.2 C21.8,13.1 14.2,6.3 14.2,6.3 Z M19.9,19.5 C19.9,19.6 19.9,19.7 19.9,19.7 C19.9,24.8 15.9,29 10.9,29 C5.5,29 1.9,24.4 1.9,17.7 C1.9,14.7 3.6,11 6.9,6.9 C7.9,5.8 8.9,4.7 9.7,3.9 C10.1,5.7 10.9,7.9 12.2,10.1 L14.4,13.7 L15.3,10.1 C17.4,12.6 19.9,16.2 19.9,19.2 C19.9,19.3 19.9,19.4 19.9,19.5 Z" id="Shape"></path>
                        <path d="M14.1,16.8 C13.8,16.2 13.4,15.6 13,15.1 C12.8,14.8 12.6,14.5 12.5,14.4 L11,12.6 L9.6,14.4 C9.5,14.5 9.3,14.8 9.1,15.1 C8.7,15.7 8.3,16.3 8,16.8 C7.5,17.6 7.2,18.3 6.9,18.9 C6.4,20 6.2,21 6.2,21.8 C6.2,25.1 8.2,27.4 11.1,27.4 C14,27.4 16,25.1 16,21.8 C16,20.9 15.8,20 15.3,18.9 C15,18.3 14.6,17.6 14.1,16.8 Z M11,25.7 C9.2,25.7 7.9,24.2 7.9,21.9 C7.9,21.3 8.1,20.5 8.5,19.7 C8.7,19.1 9.1,18.5 9.5,17.8 C9.8,17.3 10.2,16.7 10.6,16.2 C10.8,15.9 11,15.7 11.1,15.5 L11.1,15.5 C11.2,15.6 11.4,15.8 11.6,16.1 C12,16.6 12.3,17.2 12.7,17.7 C13.1,18.4 13.4,19 13.7,19.6 C14.1,20.5 14.3,21.2 14.3,21.8 C14.1,24.2 12.9,25.7 11,25.7 Z" id="Shape"></path>
                    </g>
                </g>
            </g>
            <g id="리스트별점아이콘32*32" transform="translate(768.000000, 48.000000)" fill="#008A00" fill-rule="nonzero">
                <g id="GR/Icon/Icon_star_32_on" transform="translate(2.000000, 3.000000)">
                    <polygon id="Star-2" points="13.5 21.5586698 5.15654115 26 6.75 16.5931116 0 9.9311163 9.3282706 8.5586698 13.5 0 17.6717294 8.5586698 27 9.9311163 20.25 16.5931116 21.8434588 26"></polygon>
                </g>
            </g>
            <g id="상세아이콘80*80" transform="translate(2.000000, 350.000000)">
                <g id="PD/icon/icon_03" transform="translate(318.666667, 0.433208)">
                    <g id="icon-3">
                        <ellipse id="Mask" fill="#F9F9F9" fill-rule="nonzero" cx="79.6666667" cy="80" rx="79.6666667" ry="80"></ellipse>
                        <g id="Group-9" transform="translate(39.833333, 45.000000)">
                            <polygon id="Rectangle" stroke="#202020" stroke-width="3" points="13.44375 0.5 13.44375 63.5 62.2395833 63.5 62.2395833 0.5"></polygon>
                            <rect id="Rectangle" fill="#202020" fill-rule="nonzero" x="20.9125" y="26" width="2.9875" height="10" rx="0.65"></rect>
                            <rect id="Rectangle" fill="#202020" fill-rule="nonzero" x="0" y="62" width="18.9208333" height="3" rx="0.65"></rect>
                            <rect id="Rectangle" fill="#202020" fill-rule="nonzero" x="64.7291667" y="62" width="15.9333333" height="3" rx="0.65"></rect>
                            <g id="Group-4" transform="translate(29.148716, 37.272727)" fill-rule="nonzero">
                                <rect id="Rectangle" fill="#BDD61A" x="0.726284461" y="0.727272727" width="40.8291667" height="33" rx="1.3"></rect>
                                <path d="M17.6554511,0.727272727 L26.6179511,0.727272727 L26.6179511,13.0772727 C26.6179511,13.4362578 26.3281488,13.7272727 25.9706595,13.7272727 L18.3027428,13.7272727 C17.9452535,13.7272727 17.6554511,13.4362578 17.6554511,13.0772727 L17.6554511,0.727272727 Z" id="Rectangle" fill="#202020"></path>
                            </g>
                        </g>
                    </g>
                </g>
                <g id="PD/icon/icon_02" transform="translate(159.333333, 0.433208)">
                    <g id="icon-2">
                        <ellipse id="Mask-Copy-2" fill="#F9F9F9" fill-rule="nonzero" cx="79.6666667" cy="80" rx="79.6666667" ry="80"></ellipse>
                        <path d="M44.3689503,83.8820024 L44.3860086,83.8648543 C44.9347778,83.2109121 45.5373483,82.6051417 46.1867463,82.0546406 L59.1730489,69 L76.8214285,69 L89.7411697,81.6479433 C93.3021161,84.4120558 95.6,88.7755187 95.6,93.6851852 C95.6,102.041049 88.9440999,108.814815 80.733631,108.814815 C79.7011218,108.814815 78.6931973,108.707692 77.7200024,108.503771 C75.1431562,110.686886 71.8295486,112 68.2145833,112 C64.5996181,112 61.2860105,110.686886 58.7091643,108.503771 C57.7359694,108.707692 56.7280449,108.814815 55.6955357,108.814815 C47.4850668,108.814815 40.8291667,102.041049 40.8291667,93.6851852 C40.8291667,89.9453884 42.1624428,86.5225094 44.37164,83.8820024 L44.3689503,83.8820024 Z" id="Combined-Shape-Copy" fill="#BDD61A" fill-rule="nonzero"></path>
                        <path d="M83.65,96.5963224 C83.65,105.103539 76.7393285,112 68.2145833,112 C59.6898381,112 52.7791667,105.103539 52.7791667,96.5963224 C52.7791667,94.622119 53.1513262,92.7346593 53.8294525,91 L56.7153031,92.0654082 C56.1567578,93.4941773 55.86625,95.0225993 55.86625,96.5963224 C55.86625,103.464252 61.413404,109 68.2145833,109 C75.0157627,109 80.5629167,103.464252 80.5629167,96.5963224 L83.65,96.5963224 Z" id="Path" fill="#202020" fill-rule="nonzero"></path>
                        <rect id="Rectangle-Copy-5" fill="#202020" fill-rule="nonzero" x="66.7208333" y="55" width="2.9875" height="11"></rect>
                        <polygon id="Rectangle-Copy-6" fill="#202020" fill-rule="nonzero" transform="translate(76.363824, 61.944024) rotate(15.000000) translate(-76.363824, -61.944024) " points="74.8647056 57.1917159 77.8417812 57.2037552 77.8629431 66.696332 74.8858674 66.6842927"></polygon>
                        <polygon id="Rectangle-Copy-7" fill="#202020" fill-rule="nonzero" transform="translate(59.434658, 61.944024) scale(-1, 1) rotate(15.000000) translate(-59.434658, -61.944024) " points="57.9355388 57.1917158 60.9126145 57.2037551 60.9337763 66.6963319 57.9567007 66.6842926"></polygon>
                        <rect id="Rectangle-Copy-11" fill="#202020" fill-rule="nonzero" x="91.6166667" y="42" width="2.9875" height="22"></rect>
                        <path d="M110.10989,82.6783505 L110.01951,82.6065034 L109.941177,82.5215822 C106.192012,78.4571033 104.044461,74.073452 103.542084,69.3956661 L103.533473,69.2348302 L103.533473,62.5 C103.533473,59.7385763 101.304223,57.5 98.5543056,57.5 L88.0980556,57.5 C85.3481377,57.5 83.1188889,59.7385763 83.1188889,62.5 L83.1188889,70.2422679 L83.1126225,70.3795197 C82.6856398,75.0458033 80.5880998,79.5154565 76.8641677,83.7683106 L76.7938538,83.8432591 C73.8690732,86.7538503 72.1979167,90.6878867 72.1979167,94.8888889 C72.1979167,103.508268 79.2102492,110.5 87.8656944,110.5 C89.8425314,110.5 91.7663856,110.135799 93.5662123,109.434979 L94.10625,109.224698 L94.6462877,109.434979 C96.4461144,110.135799 98.3699686,110.5 100.346806,110.5 C109.002251,110.5 116.014583,103.508268 116.014583,94.8888889 C116.014583,90.0754708 113.816069,85.6245401 110.10989,82.6783505 Z" id="Combined-Shape-Copy-2" stroke="#202020" stroke-width="3" fill="#F9F9F9" fill-rule="nonzero"></path>
                        <path d="M95.6042953,48.6487052 C102.193512,53.3676697 107.601978,52.2529392 112.465575,45.1232728 C105.53173,40.708822 100.111469,41.8458013 95.6042953,48.6487052 Z" id="Path-2-Copy" stroke="#202020" stroke-width="3"></path>
                    </g>
                </g>
                <g id="PD/icon/icon_01" transform="translate(0.000000, 0.433208)">
                    <g id="Group-2">
                        <ellipse id="Mask-Copy" fill="#F9F9F9" fill-rule="nonzero" cx="79.6666667" cy="80" rx="79.6666667" ry="80"></ellipse>
                        <ellipse id="Oval-Copy-4" stroke="#202020" stroke-width="3" cx="84.1479167" cy="79.5" rx="34.8541667" ry="35"></ellipse>
                        <rect id="Rectangle-Copy" fill="#BDD61A" fill-rule="nonzero" x="35.85" y="86" width="43.8166667" height="30"></rect>
                        <rect id="Rectangle-Copy-2" fill="#202020" fill-rule="nonzero" x="35.85" y="94" width="43.8166667" height="3"></rect>
                        <rect id="Rectangle-Copy-10" stroke="#202020" stroke-width="1.89" x="66.6660625" y="106.945" width="6.08454167" height="1.11"></rect>
                        <path d="M98.7547499,71.7519246 L100.411916,74.2480754 L85.4744168,84.2480754 C84.4817381,84.9126302 83.1520833,84.1980431 83.1520833,83 L83.1520833,59 L86.1395833,59 L86.1395833,80.1972244 L98.7547499,71.7519246 Z" id="Path" fill="#202020" fill-rule="nonzero"></path>
                    </g>
                </g>
            </g>
            <g id="맛평가아이콘-24*24" transform="translate(256.000000, 112.000000)" fill-rule="nonzero">
                <g id="맛평가">
                    <rect id="Rectangle" fill="#DDDDDD" x="0" y="0" width="23.9102618" height="5.99250936"></rect>
                    <rect id="Rectangle" fill="#DDDDDD" x="0" y="8.98876404" width="23.9102618" height="5.99250936"></rect>
                    <rect id="Rectangle" fill="#303030" x="0" y="17.9775281" width="23.9102618" height="5.99250936"></rect>
                </g>
                <g id="맛평가" transform="translate(23.910262, 0.000000)">
                    <rect id="Rectangle" fill="#DDDDDD" x="0" y="0" width="23.9102618" height="5.99250936"></rect>
                    <rect id="Rectangle" fill="#303030" x="0" y="8.98876404" width="23.9102618" height="5.99250936"></rect>
                    <rect id="Rectangle" fill="#303030" x="0" y="17.9775281" width="23.9102618" height="5.99250936"></rect>
                </g>
                <g id="맛평가" transform="translate(47.820523, 0.000000)" fill="#303030">
                    <rect id="Rectangle" x="0" y="0" width="23.9102618" height="5.99250936"></rect>
                    <rect id="Rectangle" x="0" y="8.98876404" width="23.9102618" height="5.99250936"></rect>
                    <rect id="Rectangle" x="0" y="17.9775281" width="23.9102618" height="5.99250936"></rect>
                </g>
            </g>
            <g id="중간별_on_off" fill-rule="nonzero">
                <g id="중간별_on" transform="translate(0.000000, 36.000000)" fill="#008A00">
                    <g id="Group-17">
                        <g id="Group-16" transform="translate(1.000000, 3.000000)">
                            <g id="GR/Icon/Icon_star_36_on" transform="translate(119.371728, 0.000000)">
                                <g id="Star-2">
                                    <polygon id="Path" points="15.4188482 24.8753882 5.88947593 30 7.70942408 19.145898 0 11.4589803 10.6541621 9.8753882 15.4188482 0 20.1835343 9.8753882 30.8376963 11.4589803 23.1282723 19.145898 24.9482204 30"></polygon>
                                </g>
                            </g>
                            <g id="GR/Icon/Icon_star_36_on" transform="translate(159.162304, 0.000000)">
                                <g id="Star-2">
                                    <polygon id="Path" points="15.4188482 24.8753882 5.88947593 30 7.70942408 19.145898 0 11.4589803 10.6541621 9.8753882 15.4188482 0 20.1835343 9.8753882 30.8376963 11.4589803 23.1282723 19.145898 24.9482204 30"></polygon>
                                </g>
                            </g>
                            <g id="GR/Icon/Icon_star_36_on" transform="translate(79.581152, 0.000000)">
                                <g id="Star-2">
                                    <polygon id="Path" points="15.4188482 24.8753882 5.88947593 30 7.70942408 19.145898 0 11.4589803 10.6541621 9.8753882 15.4188482 0 20.1835343 9.8753882 30.8376963 11.4589803 23.1282723 19.145898 24.9482204 30"></polygon>
                                </g>
                            </g>
                            <g id="GR/Icon/Icon_star_36_on" transform="translate(39.790576, 0.000000)">
                                <g id="Star-2">
                                    <polygon id="Path" points="15.4188482 24.8753882 5.88947593 30 7.70942408 19.145898 0 11.4589803 10.6541621 9.8753882 15.4188482 0 20.1835343 9.8753882 30.8376963 11.4589803 23.1282723 19.145898 24.9482204 30"></polygon>
                                </g>
                            </g>
                            <g id="GR/Icon/Icon_star_36_on">
                                <polygon id="Star-2" points="15.4188482 24.8753882 5.88947593 30 7.70942408 19.145898 0 11.4589803 10.6541621 9.8753882 15.4188482 0 20.1835343 9.8753882 30.8376963 11.4589803 23.1282723 19.145898 24.9482204 30"></polygon>
                            </g>
                        </g>
                    </g>
                </g>
                <g id="중간별_off" opacity="0.799999952" fill="#B0B0B0" stroke="#606060" stroke-width="2">
                    <g id="Group-6" transform="translate(0.015707, 0.000000)">
                        <g id="Group-16" transform="translate(4.000000, 6.000000)">
                            <g id="GR/Icon/Icon_star_36_off">
                                <polygon id="Star-2" points="20.0309048 24.1592104 18.5796713 15.5240053 24.7435801 9.3922194 16.2269002 8.1292441 12.434555 0.2872192 8.64220979 8.1292441 0.125529767 9.3922194 6.28943873 15.5240053 4.83820519 24.1592104 12.434555 20.0835114"></polygon>
                            </g>
                            <g id="GR/Icon/Icon_star_36_off" transform="translate(39.790576, 0.000000)">
                                <polygon id="Star-2" points="20.0309048 24.1592104 18.5796713 15.5240053 24.7435801 9.3922194 16.2269002 8.1292441 12.434555 0.2872192 8.64220979 8.1292441 0.125529767 9.3922194 6.28943873 15.5240053 4.83820519 24.1592104 12.434555 20.0835114"></polygon>
                            </g>
                            <g id="GR/Icon/Icon_star_36_off" transform="translate(119.371728, 0.000000)">
                                <polygon id="Star-2" points="20.0309048 24.1592104 18.5796713 15.5240053 24.7435801 9.3922194 16.2269002 8.1292441 12.434555 0.2872192 8.64220979 8.1292441 0.125529767 9.3922194 6.28943873 15.5240053 4.83820519 24.1592104 12.434555 20.0835114"></polygon>
                            </g>
                            <g id="GR/Icon/Icon_star_36_off" transform="translate(159.162304, 0.000000)">
                                <polygon id="Star-2" points="20.0309048 24.1592104 18.5796713 15.5240053 24.7435801 9.3922194 16.2269002 8.1292441 12.434555 0.2872192 8.64220979 8.1292441 0.125529767 9.3922194 6.28943873 15.5240053 4.83820519 24.1592104 12.434555 20.0835114"></polygon>
                            </g>
                            <g id="GR/Icon/Icon_star_36_off-Copy" transform="translate(79.581152, 0.000000)">
                                <polygon id="Star-2" points="20.0309048 24.1592104 18.5796713 15.5240053 24.7435801 9.3922194 16.2269002 8.1292441 12.434555 0.2872192 8.64220979 8.1292441 0.125529767 9.3922194 6.28943873 15.5240053 4.83820519 24.1592104 12.434555 20.0835114"></polygon>
                            </g>
                        </g>
                    </g>
                </g>
            </g>
            <g id="큰별_on_off" transform="translate(2.000000, 511.000000)">
                <g id="Group-3" transform="translate(0.000000, 56.000000)" fill="#008A00">
                    <g id="GR/Icon/Icon_star_56_on">
                        <polygon id="Star-2" points="28.5 45.1173396 12.1220993 54 15.25 35.1862233 2 21.8622326 20.3110496 19.1173396 28.5 2 36.6889504 19.1173396 55 21.8622326 41.75 35.1862233 44.8779007 54"></polygon>
                    </g>
                    <g id="GR/Icon/Icon_star_56_on" transform="translate(80.787402, 0.000000)">
                        <polygon id="Star-2" points="28.5 45.1173396 12.1220993 54 15.25 35.1862233 2 21.8622326 20.3110496 19.1173396 28.5 2 36.6889504 19.1173396 55 21.8622326 41.75 35.1862233 44.8779007 54"></polygon>
                    </g>
                    <g id="GR/Icon/Icon_star_56_on" transform="translate(161.574803, 0.000000)">
                        <polygon id="Star-2" points="28.5 45.1173396 12.1220993 54 15.25 35.1862233 2 21.8622326 20.3110496 19.1173396 28.5 2 36.6889504 19.1173396 55 21.8622326 41.75 35.1862233 44.8779007 54"></polygon>
                    </g>
                    <g id="GR/Icon/Icon_star_56_on" transform="translate(242.362205, 0.000000)">
                        <polygon id="Star-2" points="28.5 45.1173396 12.1220993 54 15.25 35.1862233 2 21.8622326 20.3110496 19.1173396 28.5 2 36.6889504 19.1173396 55 21.8622326 41.75 35.1862233 44.8779007 54"></polygon>
                    </g>
                    <g id="GR/Icon/Icon_star_56_on" transform="translate(323.149606, 0.000000)">
                        <polygon id="Star-2" points="28.5 45.1173396 12.1220993 54 15.25 35.1862233 2 21.8622326 20.3110496 19.1173396 28.5 2 36.6889504 19.1173396 55 21.8622326 41.75 35.1862233 44.8779007 54"></polygon>
                    </g>
                </g>
                <g id="Group-2" fill="#B0B0B0" opacity="0.799999952" stroke="#808080" stroke-width="2">
                    <g id="GR/Icon/Icon_star_56_off">
                        <path d="M43.5558294,52.1453587 L40.6794707,34.844563 L52.8975626,22.5582427 L36.0158853,20.0276178 L28.5,4.3171841 L20.9841147,20.0276178 L4.10243737,22.5582427 L16.3205293,34.844563 L13.4441706,52.1453587 L28.5,43.9797322 L43.5558294,52.1453587 Z" id="Star-2"></path>
                    </g>
                    <g id="GR/Icon/Icon_star_56_off" transform="translate(80.787402, 0.000000)">
                        <path d="M43.5558294,52.1453587 L40.6794707,34.844563 L52.8975626,22.5582427 L36.0158853,20.0276178 L28.5,4.3171841 L20.9841147,20.0276178 L4.10243737,22.5582427 L16.3205293,34.844563 L13.4441706,52.1453587 L28.5,43.9797322 L43.5558294,52.1453587 Z" id="Star-2"></path>
                    </g>
                    <g id="GR/Icon/Icon_star_56_off" transform="translate(161.574803, 0.000000)">
                        <path d="M43.5558294,52.1453587 L40.6794707,34.844563 L52.8975626,22.5582427 L36.0158853,20.0276178 L28.5,4.3171841 L20.9841147,20.0276178 L4.10243737,22.5582427 L16.3205293,34.844563 L13.4441706,52.1453587 L28.5,43.9797322 L43.5558294,52.1453587 Z" id="Star-2"></path>
                    </g>
                    <g id="GR/Icon/Icon_star_56_off" transform="translate(242.362205, 0.000000)">
                        <path d="M43.5558294,52.1453587 L40.6794707,34.844563 L52.8975626,22.5582427 L36.0158853,20.0276178 L28.5,4.3171841 L20.9841147,20.0276178 L4.10243737,22.5582427 L16.3205293,34.844563 L13.4441706,52.1453587 L28.5,43.9797322 L43.5558294,52.1453587 Z" id="Star-2"></path>
                    </g>
                    <g id="GR/Icon/Icon_star_56_off" transform="translate(323.149606, 0.000000)">
                        <path d="M43.5558294,52.1453587 L40.6794707,34.844563 L52.8975626,22.5582427 L36.0158853,20.0276178 L28.5,4.3171841 L20.9841147,20.0276178 L4.10243737,22.5582427 L16.3205293,34.844563 L13.4441706,52.1453587 L28.5,43.9797322 L43.5558294,52.1453587 Z" id="Star-2"></path>
                    </g>
                </g>
            </g>
            <g id="리뷰별_on_off" transform="translate(0.000000, 650.000000)">
                <g id="Group-19" fill="#B0B0B0" opacity="0.799999952" stroke="#606060" stroke-width="2">
                    <g id="GR/Icon/Icon_star_40_off">
                        <path d="M28.9916164,35.1539736 L27.1782304,24.3546468 L34.8829015,16.6835768 L24.2375933,15.1035886 L19.5,5.29855237 L14.7624067,15.1035886 L4.11709847,16.6835768 L11.8217696,24.3546468 L10.0083836,35.1539736 L19.5,30.0570467 L28.9916164,35.1539736 Z" id="Star-2"></path>
                    </g>
                    <g id="GR/Icon/Icon_star_40_off" transform="translate(44.000000, 0.000000)">
                        <path d="M28.9916164,35.1539736 L27.1782304,24.3546468 L34.8829015,16.6835768 L24.2375933,15.1035886 L19.5,5.29855237 L14.7624067,15.1035886 L4.11709847,16.6835768 L11.8217696,24.3546468 L10.0083836,35.1539736 L19.5,30.0570467 L28.9916164,35.1539736 Z" id="Star-2"></path>
                    </g>
                    <g id="GR/Icon/Icon_star_40_off" transform="translate(88.000000, 0.000000)">
                        <path d="M28.9916164,35.1539736 L27.1782304,24.3546468 L34.8829015,16.6835768 L24.2375933,15.1035886 L19.5,5.29855237 L14.7624067,15.1035886 L4.11709847,16.6835768 L11.8217696,24.3546468 L10.0083836,35.1539736 L19.5,30.0570467 L28.9916164,35.1539736 Z" id="Star-2"></path>
                    </g>
                    <g id="GR/Icon/Icon_star_40_off" transform="translate(132.000000, 0.000000)">
                        <path d="M28.9916164,35.1539736 L27.1782304,24.3546468 L34.8829015,16.6835768 L24.2375933,15.1035886 L19.5,5.29855237 L14.7624067,15.1035886 L4.11709847,16.6835768 L11.8217696,24.3546468 L10.0083836,35.1539736 L19.5,30.0570467 L28.9916164,35.1539736 Z" id="Star-2"></path>
                    </g>
                    <g id="GR/Icon/Icon_star_40_off" transform="translate(176.000000, 0.000000)">
                        <path d="M28.9916164,35.1539736 L27.1782304,24.3546468 L34.8829015,16.6835768 L24.2375933,15.1035886 L19.5,5.29855237 L14.7624067,15.1035886 L4.11709847,16.6835768 L11.8217696,24.3546468 L10.0083836,35.1539736 L19.5,30.0570467 L28.9916164,35.1539736 Z" id="Star-2"></path>
                    </g>
                </g>
                <g id="Group-18" transform="translate(0.000000, 40.000000)" fill="#008A00" fill-rule="nonzero">
                    <g id="GR/Icon/Icon_star_40_on">
                        <polygon id="Star-2" points="19.5 31.1921066 8.6844052 37 10.75 24.6986844 2 15.9868444 14.0922026 14.1921066 19.5 3 24.9077974 14.1921066 37 15.9868444 28.25 24.6986844 30.3155948 37"></polygon>
                    </g>
                    <g id="GR/Icon/Icon_star_40_on" transform="translate(44.000000, 0.000000)">
                        <polygon id="Star-2" points="19.5 31.1921066 8.6844052 37 10.75 24.6986844 2 15.9868444 14.0922026 14.1921066 19.5 3 24.9077974 14.1921066 37 15.9868444 28.25 24.6986844 30.3155948 37"></polygon>
                    </g>
                    <g id="GR/Icon/Icon_star_40_on" transform="translate(88.000000, 0.000000)">
                        <polygon id="Star-2" points="19.5 31.1921066 8.6844052 37 10.75 24.6986844 2 15.9868444 14.0922026 14.1921066 19.5 3 24.9077974 14.1921066 37 15.9868444 28.25 24.6986844 30.3155948 37"></polygon>
                    </g>
                    <g id="GR/Icon/Icon_star_40_on" transform="translate(132.000000, 0.000000)">
                        <polygon id="Star-2" points="19.5 31.1921066 8.6844052 37 10.75 24.6986844 2 15.9868444 14.0922026 14.1921066 19.5 3 24.9077974 14.1921066 37 15.9868444 28.25 24.6986844 30.3155948 37"></polygon>
                    </g>
                    <g id="GR/Icon/Icon_star_40_on" transform="translate(176.000000, 0.000000)">
                        <polygon id="Star-2" points="19.5 31.1921066 8.6844052 37 10.75 24.6986844 2 15.9868444 14.0922026 14.1921066 19.5 3 24.9077974 14.1921066 37 15.9868444 28.25 24.6986844 30.3155948 37"></polygon>
                    </g>
                </g>
            </g>
            <g id="선물아이콘48*48" transform="translate(184.000000, 97.000000)" stroke="#101010">
                <g id="GR/Icon/Icon_gift_48">
                    <g id="Group" transform="translate(3.000000, 4.000000)">
                        <rect id="Rectangle" stroke-width="3" x="1.5" y="10.5" width="39" height="7"></rect>
                        <rect id="Rectangle" stroke-width="3" x="17.5" y="10.5" width="8" height="28"></rect>
                        <rect id="Rectangle" stroke-width="3" x="3.5" y="17.5" width="35" height="21"></rect>
                        <path d="M19.7255572,10.5 C18.0203124,6.6984816 16.3945945,4.11251986 14.9019467,2.76702327 C13.7878776,1.76278363 11.538615,1.24169753 9.65511138,1.62872373 C7.64556957,2.04164852 6.5,3.3016612 6.5,5.5137015 C6.5,8.85221161 8.96390637,10.5 14.6988377,10.5 L19.7255572,10.5 Z" id="Path-4" stroke-width="3"></path>
                        <path d="M34.7255572,10.5 C33.0203124,6.6984816 31.3945945,4.11251986 29.9019467,2.76702327 C28.7878776,1.76278363 26.538615,1.24169753 24.6551114,1.62872373 C22.6455696,2.04164852 21.5,3.3016612 21.5,5.5137015 C21.5,8.85221161 23.9639064,10.5 29.6988377,10.5 L34.7255572,10.5 Z" id="Path-4" stroke-width="3" transform="translate(28.500000, 6.000000) scale(-1, 1) translate(-28.500000, -6.000000) "></path>
                    </g>
                </g>
            </g>
            <g id="상세흰색화살표" transform="translate(719.000000, 119.000000)">
                <g id="Group-12" transform="translate(40.849188, 0.000000)">
                    <path d="M35.4489451,10.9956038 C35.5056117,11.3556129 35.3814766,11.735941 35.0866965,11.9924587 L25.0618996,20.7160399 C24.5701511,21.1439596 23.8377758,21.1387652 23.3521159,20.7039133 L23.2781472,20.6376829 C23.2437354,20.6068712 23.2113094,20.5739008 23.1810644,20.5389705 C22.7863368,20.083094 22.834986,19.3927433 23.2897255,18.9970287 L32.4846489,10.9956038 L23.2897255,2.99417889 C22.834986,2.59846439 22.7863368,1.90811355 23.1810644,1.45223714 C23.2113094,1.41730686 23.2437354,1.38433642 23.2781472,1.35352468 L23.3521159,1.28729435 C23.8377758,0.852442431 24.5701511,0.847248092 25.0618996,1.27516779 L35.0866965,9.99874896 C35.3814766,10.2552667 35.5056117,10.6355948 35.4489451,10.9956038 Z" id="Combined-Shape-Copy" fill="#FFFFFF" fill-rule="nonzero"></path>
                    <path d="M0.498130454,11.0486891 L33.3650113,11.0486891" id="Line" stroke="#FFFFFF" stroke-width="3" stroke-linecap="round"></path>
                </g>
                <g id="Group-12-Copy-2" transform="translate(18.864144, 11.000000) scale(-1, 1) translate(-18.864144, -11.000000) translate(0.864144, 0.000000)">
                    <path d="M35.4489451,10.9956038 C35.5056117,11.3556129 35.3814766,11.735941 35.0866965,11.9924587 L25.0618996,20.7160399 C24.5701511,21.1439596 23.8377758,21.1387652 23.3521159,20.7039133 L23.2781472,20.6376829 C23.2437354,20.6068712 23.2113094,20.5739008 23.1810644,20.5389705 C22.7863368,20.083094 22.834986,19.3927433 23.2897255,18.9970287 L32.4846489,10.9956038 L23.2897255,2.99417889 C22.834986,2.59846439 22.7863368,1.90811355 23.1810644,1.45223714 C23.2113094,1.41730686 23.2437354,1.38433642 23.2781472,1.35352468 L23.3521159,1.28729435 C23.8377758,0.852442431 24.5701511,0.847248092 25.0618996,1.27516779 L35.0866965,9.99874896 C35.3814766,10.2552667 35.5056117,10.6355948 35.4489451,10.9956038 Z" id="Combined-Shape-Copy" fill="#FFFFFF" fill-rule="nonzero"></path>
                    <path d="M0.498130454,11.0486891 L33.3650113,11.0486891" id="Line" stroke="#FFFFFF" stroke-width="3" stroke-linecap="round"></path>
                </g>
            </g>
            <g id="주문마감아이콘" transform="translate(481.000000, 352.000000)">
                <g id="GR/Component/icon_time">
                    <path d="M14.9439136,0 C22.6469896,0 28.8915663,6.26018826 28.8915663,13.9825218 C28.8915663,21.7048554 22.6469896,27.9650437 14.9439136,27.9650437 C7.24083773,27.9650437 0.996260908,21.7048554 0.996260908,13.9825218 L3.98504364,13.9825218 C3.98504364,20.0500696 8.89149685,24.968789 14.9439136,24.968789 C20.9963304,24.968789 25.9027836,20.0500696 25.9027836,13.9825218 C25.9027836,7.91497403 20.9963304,2.99625468 14.9439136,2.99625468 L14.9439136,0 Z M14.9439136,0 C22.6469896,0 28.8915663,6.26018826 28.8915663,13.9825218 C28.8915663,21.7048554 22.6469896,27.9650437 14.9439136,27.9650437 C7.24083773,27.9650437 0.996260908,21.7048554 0.996260908,13.9825218 L3.98504364,13.9825218 C3.98504364,20.0500696 8.89149685,24.968789 14.9439136,24.968789 C20.9963304,24.968789 25.9027836,20.0500696 25.9027836,13.9825218 C25.9027836,7.91497403 20.9963304,2.99625468 14.9439136,2.99625468 L14.9439136,0 Z" id="Oval" fill="#202020" fill-rule="nonzero"></path>
                    <polyline id="Path-2" stroke="#202020" stroke-width="3" points="13.9476527 7.99001248 13.9476527 14.9812734 19.9252182 14.9812734"></polyline>
                    <ellipse id="Oval" fill="#202020" fill-rule="nonzero" transform="translate(3.575673, 8.896299) rotate(-55.000000) translate(-3.575673, -8.896299) " cx="3.57567255" cy="8.89629924" rx="1.99586573" ry="1.99416202"></ellipse>
                    <ellipse id="Oval" fill="#202020" fill-rule="nonzero" transform="translate(9.493001, 2.843401) rotate(-28.000000) translate(-9.493001, -2.843401) " cx="9.49300132" cy="2.84340133" rx="1.9936208" ry="1.99640631"></ellipse>
                </g>
            </g>
            <g id="메뉴확장형아이콘76*76" transform="translate(0.000000, 176.000000)">
                <g id="PD/Component/btn_like" transform="translate(152.000000, 0.000000)" fill-rule="nonzero">
                    <g id="Group">
                        <ellipse id="Oval" fill="#F2F2F2" cx="37.7339933" cy="37.9525593" rx="37.7339933" ry="37.9525593"></ellipse>
                        <g id="GR/Icon/Icon_like_on" transform="translate(18.866996, 22.971286)" fill="#111111">
                            <path d="M19.1248402,33.6187063 L34.9443399,18.171518 C38.6638777,14.0287575 38.6638777,7.25132904 34.9443399,3.10856849 C31.2230051,-1.0361895 25.1351817,-1.0361895 21.4138469,3.10856849 L18.7778266,5.97694082 L16.321494,3.1764826 C12.6001593,-0.964280449 6.51233585,-0.964280449 2.79100109,3.1764826 C-0.930333702,7.31924315 -0.930333702,14.0986691 2.79100109,18.2414296 L18.4319495,33.6175327 C18.6244216,33.8067457 18.9317357,33.8072662 19.1248402,33.6187063 Z" id="Stroke-9"></path>
                        </g>
                    </g>
                </g>
                <g id="PD/Component/btn_share" transform="translate(608.000000, -0.000000)">
                    <ellipse id="Oval" fill="#F2F2F2" fill-rule="nonzero" cx="37.7339933" cy="37.9525593" rx="37.7339933" ry="37.9525593"></ellipse>
                    <g id="GR/Icon/Icon_share" transform="translate(19.859996, 21.972534)" stroke="#606060" stroke-width="3">
                        <g id="if_button_share_352893">
                            <polyline id="path3791" points="26.385424 4.556804 4.39757065 15.4806492 26.385424 26.4044944"></polyline>
                            <path d="M30.7829947,4.55681651 C30.7829947,6.97004579 28.8141352,8.92635467 26.385424,8.92635467 C23.9567127,8.92635467 21.9878532,6.97004579 21.9878532,4.55681651 C21.9878532,2.14358722 23.9567127,0.187278342 26.385424,0.187278342 C28.8141352,0.187278342 30.7829947,2.14358722 30.7829947,4.55681651 Z" id="path2985" fill="#F2F2F2" fill-rule="nonzero"></path>
                            <path d="M30.7829947,26.4045069 C30.7829947,28.8177362 28.8141352,30.774045 26.385424,30.774045 C23.9567127,30.774045 21.9878532,28.8177362 21.9878532,26.4045069 C21.9878532,23.9912776 23.9567127,22.0349687 26.385424,22.0349687 C28.8141352,22.0349687 30.7829947,23.9912776 30.7829947,26.4045069 Z" id="path2985-1" fill="#F2F2F2" fill-rule="nonzero"></path>
                            <path d="M8.79514144,15.4806617 C8.79514144,17.893891 6.82628196,19.8501999 4.39757069,19.8501999 C1.96885943,19.8501999 -4.32884235e-08,17.893891 -4.32884235e-08,15.4806617 C-4.32884169e-08,13.0674324 1.96885943,11.1111235 4.39757069,11.1111235 C6.82628196,11.1111235 8.79514144,13.0674324 8.79514144,15.4806617 Z" id="path2985-1-7" fill="#F2F2F2" fill-rule="nonzero"></path>
                        </g>
                    </g>
                </g>
                <g id="PD/Component/btn_alarm" transform="translate(228.000000, 0.000000)">
                    <circle id="Oval" fill="#F2F2F2" fill-rule="evenodd" cx="38" cy="38" r="38"></circle>
                    <text id="재입고-알림" font-family="AppleSDGothicNeo-SemiBold, Apple SD Gothic Neo" font-size="18" font-weight="500" fill="#606060">
                        <tspan x="14.645" y="35">재입고</tspan>
                        <tspan x="22.43" y="56">알림</tspan>
                    </text>
                </g>
                <g id="PD/Component/btn_recipe" transform="translate(532.000000, -0.000000)">
                    <g id="Group">
                        <ellipse id="Oval" fill="#F2F2F2" fill-rule="nonzero" cx="37.7339933" cy="37.9525593" rx="37.7339933" ry="37.9525593"></ellipse>
                        <g id="PD/Component/icon_recipe" transform="translate(16.880997, 20.973783)">
                            <g id="Group">
                                <path d="M34.6124235,2.99625468 L34.6124235,27.1882369 C34.6124235,29.7872248 32.3608399,31.9600499 29.5417858,31.9600499 L6.55610251,31.9600499 L5.95799895,34.9563046 L29.5417858,34.9563046 C33.9791483,34.9563046 37.5914231,31.4703842 37.5914231,27.1882369 L37.5914231,0 L8.92047193,0 L8.92047193,20.1155232 L11.8994714,20.1155232 L11.8994714,2.99625468 L34.6124235,2.99625468 Z" id="Path" fill="#606060" fill-rule="nonzero"></path>
                                <path d="M2.97899947,21.9725343 L2.97899947,28.9637953 C2.97899947,30.618581 4.31274297,31.9600499 5.95799895,31.9600499 C7.60325488,31.9600499 8.93699842,30.618581 8.93699842,28.9637953 L8.93699842,21.9725343 L2.97899947,21.9725343 Z M0,18.9762797 L11.9159979,18.9762797 L11.9159979,28.9637953 C11.9159979,32.2733668 9.24851091,34.9563046 5.95799895,34.9563046 C2.66748699,34.9563046 0,32.2733668 0,28.9637953 L0,18.9762797 Z" id="Rectangle" fill="#606060" fill-rule="nonzero"></path>
                                <path d="M16.8809971,11.4856429 L25.8179954,11.4856429" id="Path-4" stroke="#606060" stroke-width="3"></path>
                                <path d="M16.8809971,17.4781523 L29.7899947,17.4781523" id="Path-4" stroke="#606060" stroke-width="3"></path>
                            </g>
                        </g>
                    </g>
                </g>
                <g id="PD/Component/btn_like" transform="translate(76.000000, 0.000000)">
                    <g>
                        <circle id="Oval" fill="#F2F2F2" cx="38" cy="38" r="38"></circle>
                        <g id="GR/Icon/lcon_like_off" transform="translate(14.000000, 14.000000)" stroke="#606060" stroke-width="3">
                            <path d="M23.9138298,40.9060541 L39.0774245,26.1889164 C42.3075252,22.6120016 42.3075252,16.6946851 39.077425,13.1177708 C35.925483,9.62740973 30.8300022,9.62740973 27.6663278,13.1306124 L23.8842435,17.2223678 L22.7853584,15.9767468 L20.3237793,13.1863037 C17.1717685,9.69923071 12.0754606,9.69923071 8.92369108,13.1860367 C5.69210297,16.7628708 5.69210297,22.6818139 8.85914873,26.1915219 L23.9138298,40.9060541 Z" id="Stroke-9"></path>
                        </g>
                    </g>
                </g>
                <g id="PD/Component/btn_buy">
                    <g>
                        <circle id="Oval" fill="#F2F2F2" cx="38" cy="38" r="38"></circle>
                        <g id="GR/Icon/lcon_cart" transform="translate(14.000000, 14.000000)">
                            <g id="GR/Header/btn_shopping">
                                <rect id="Rectangle-Copy-4" x="0" y="0" width="48" height="48"></rect>
                                <g id="Group-5" transform="translate(4.166667, 9.291667)" fill-rule="nonzero" stroke="#606060">
                                    <path d="M0,0.232208252 L6.06630707,0.232208252 L12.25,23.625 L29.1666667,23.625 C32.2777778,23.625 34.2222222,21.875 35,18.375 C35.7777778,15.2638889 36.5555556,11.7638889 37.3333333,7.875 L9.33333333,7.875" id="Path-2" stroke-width="3"></path>
                                    <circle id="Oval" stroke-width="2.5" cx="14.875" cy="31.2083333" r="2.25"></circle>
                                    <circle id="Oval" stroke-width="2.5" cx="28" cy="31.2083333" r="2.25"></circle>
                                </g>
                            </g>
                        </g>
                    </g>
                </g>
                <g id="Group-4" transform="translate(304.000000, 0.000000)">
                    <circle id="Oval" fill="#202020" cx="38" cy="38" r="38"></circle>
                    <text id="재입고-알림" font-family="AppleSDGothicNeo-SemiBold, Apple SD Gothic Neo" font-size="18" font-weight="500" fill="#FFFFFF">
                        <tspan x="14.645" y="35">재입고</tspan>
                        <tspan x="22.43" y="56">알림</tspan>
                    </text>
                </g>
                <g id="PD/Component/btn_alarm" transform="translate(380.000000, 0.000000)">
                    <circle id="Oval" fill="#F2F2F2" fill-rule="evenodd" cx="38" cy="38" r="38"></circle>
                    <text id="재입고-알림" font-family="AppleSDGothicNeo-SemiBold, Apple SD Gothic Neo" font-size="18" font-weight="500" fill="#606060">
                        <tspan x="14.645" y="35">재판매</tspan>
                        <tspan x="22.43" y="56">알림</tspan>
                    </text>
                </g>
                <g id="Group-8" transform="translate(456.000000, 0.000000)">
                    <circle id="Oval" fill="#202020" cx="38" cy="38" r="38"></circle>
                    <text id="재판매-알림" font-family="AppleSDGothicNeo-SemiBold, Apple SD Gothic Neo" font-size="18" font-weight="500" fill="#FFFFFF">
                        <tspan x="14.645" y="35">재판매</tspan>
                        <tspan x="22.43" y="56">알림</tspan>
                    </text>
                </g>
            </g>
            <g id="동영상버튼모음68*68" transform="translate(534.000000, 407.000000)">
                <g id="Group-7" transform="translate(203.215385, 0.000000)" fill-rule="nonzero">
                    <g id="GR/Component/btn_stop">
                        <g id="Group-12" opacity="0.55" fill="#000000">
                            <g id="menu_list/btn_stop_48">
                                <ellipse id="Oval-3" cx="27.8923077" cy="28" rx="27.8923077" ry="28"></ellipse>
                            </g>
                        </g>
                        <rect id="Rectangle" fill="#FFFFFF" x="19.9230769" y="21" width="3.98461538" height="15" rx="0.5"></rect>
                        <rect id="Rectangle" fill="#FFFFFF" x="31.8769231" y="21" width="3.98461538" height="15" rx="0.5"></rect>
                    </g>
                </g>
                <g id="Group-6" transform="translate(135.476923, 0.000000)" fill-rule="nonzero">
                    <g id="GR/Component/btn_play">
                        <g id="menu_list/btn_play_48">
                            <g id="Group">
                                <ellipse id="Oval-3" fill="#000000" opacity="0.55" cx="27.8923077" cy="28" rx="27.8923077" ry="28"></ellipse>
                                <path d="M36.5863129,28.4665851 L21.7218603,36.929578 C21.4641481,37.076305 21.136286,36.9863327 20.9895597,36.7286193 C20.9434676,36.6476619 20.9192308,36.5561056 20.9192308,36.4629466 L20.9192308,19.5369607 C20.9192308,19.2404055 21.1596351,19 21.4561889,19 C21.5493475,19 21.6409033,19.024237 21.7218603,19.0703293 L36.5863129,27.5333223 C36.8440251,27.6800492 36.9339969,28.0079129 36.7872706,28.2656263 C36.7395492,28.3494455 36.6701317,28.4188633 36.5863129,28.4665851 Z" id="Triangle-2" fill="#FFFFFF"></path>
                            </g>
                        </g>
                    </g>
                </g>
                <g id="Group-5" transform="translate(67.738462, 0.000000)">
                    <g id="GR/Component/btn_sound_on">
                        <g id="Group-10">
                            <ellipse id="Oval-3" fill="#000000" fill-rule="nonzero" opacity="0.55" cx="27.8923077" cy="28" rx="27.8923077" ry="28"></ellipse>
                            <polygon id="Combined-Shape" stroke="#FFFFFF" stroke-width="2" points="13.9461538 23.6910925 13.9461538 33.6910925 18.2066879 33.6910925 26.8961538 38.9249022 26.8961538 18.4572829 18.2066879 23.6910925"></polygon>
                            <path d="M31.8769231,32 C33.5274048,32 34.8653846,30.6568542 34.8653846,29 C34.8653846,27.3431458 33.5274048,26 31.8769231,26" id="Oval" stroke="#FFFFFF" stroke-width="2"></path>
                            <path d="M31.8769231,37 C36.2782077,37 39.8461538,33.418278 39.8461538,29 C39.8461538,24.581722 36.2782077,21 31.8769231,21" id="Oval-Copy" stroke="#FFFFFF" stroke-width="2"></path>
                        </g>
                    </g>
                </g>
                <g id="Group-4">
                    <g id="GR/Component/btn_sound_off">
                        <g id="Group-9">
                            <ellipse id="Oval-3" fill="#000000" fill-rule="nonzero" opacity="0.55" cx="27.8923077" cy="28" rx="27.8923077" ry="28"></ellipse>
                            <polygon id="Combined-Shape" stroke="#FFFFFF" stroke-width="2" points="13.9461538 23.6910925 13.9461538 33.6910925 18.2066879 33.6910925 26.8961538 38.9249022 26.8961538 18.4572829 18.2066879 23.6910925"></polygon>
                            <g id="Group-6" transform="translate(32.873077, 24.000000)" stroke="#FFFFFF" stroke-width="2">
                                <path d="M-0.20555824,4.50271544 L8.77809653,4.52002498 C9.05348624,4.5205556 9.2766016,4.74367096 9.27713221,5.01906067 L9.27713407,5.02002313 C9.27766307,5.29457442 9.05552411,5.51757105 8.78097283,5.51810005 C8.78033427,5.51810128 8.7796957,5.51810128 8.77905714,5.51810005 L-0.204597626,5.5007905 C-0.479987335,5.50025989 -0.703102692,5.27714453 -0.703633308,5.00175482 L-0.703635163,5.00079236 C-0.704164163,4.72624107 -0.482025209,4.50324444 -0.20747392,4.50271544 C-0.206835361,4.50271421 -0.206196799,4.50271421 -0.20555824,4.50271544 Z" id="Rectangle" transform="translate(4.286749, 5.010408) rotate(45.000000) translate(-4.286749, -5.010408) "></path>
                                <path d="M-0.204597977,3.81291785 L8.77905679,3.7956083 C9.05360808,3.7950793 9.27660472,4.01721826 9.27713372,4.29176954 C9.27713495,4.2924081 9.27713495,4.29304666 9.27713372,4.29368522 L9.27713186,4.29464769 C9.27660125,4.5700374 9.05348589,4.79315275 8.77809618,4.79368337 L-0.205558591,4.81099292 C-0.480109879,4.81152192 -0.703106513,4.58938296 -0.703635514,4.31483167 C-0.703636744,4.31419311 -0.703636744,4.31355455 -0.703635514,4.31291599 L-0.703633659,4.31195353 C-0.703103043,4.03656382 -0.479987686,3.81344846 -0.204597977,3.81291785 Z" id="Rectangle-Copy-2" transform="translate(4.286749, 4.303301) rotate(135.000000) translate(-4.286749, -4.303301) "></path>
                            </g>
                        </g>
                    </g>
                </g>
            </g>
            <g id="체크아이콘56*56" transform="translate(632.000000, 478.000000)">
                <g id="GR/Icon/Icon_input_success" transform="translate(4.000000, 4.000000)">
                    <g id="Icon_check">
                        <mask id="mask-2" fill="white">
                            <use xlink:href="#path-1"></use>
                        </mask>
                        <use id="Path-6" stroke="#008A00" stroke-width="3" xlink:href="#path-1"></use>
                    </g>
                </g>
            </g>
            <g id="플로팅버튼재입고버튼56*56" transform="translate(688.000000, 478.000000)">
                <g id="Group-7" transform="translate(56.000000, 0.000000)" fill="#EE0700">
                    <g id="GR/Icon/Icon_bell_w" transform="translate(10.000000, 9.000000)">
                        <g id="Group-24">
                            <path d="M5.5,30.5 L30.5,30.5 L30.5,17 C30.5,10.0964406 24.9035594,4.5 18,4.5 C11.0964406,4.5 5.5,10.0964406 5.5,17 L5.5,30.5 Z" id="Rectangle" stroke="#EE0700" stroke-width="3"></path>
                            <rect id="Rectangle" fill-rule="nonzero" x="16.5" y="0" width="3" height="9" rx="1"></rect>
                            <path d="M17.5,12.5 L18.5,12.5 C19.0522847,12.5 19.5,12.9477153 19.5,13.5 L19.5,47.5 C19.5,48.0522847 19.0522847,48.5 18.5,48.5 L17.5,48.5 C16.9477153,48.5 16.5,48.0522847 16.5,47.5 L16.5,13.5 C16.5,12.9477153 16.9477153,12.5 17.5,12.5 Z" id="Rectangle-Copy-10" fill-rule="nonzero" transform="translate(18.000000, 30.500000) rotate(90.000000) translate(-18.000000, -30.500000) "></path>
                            <path d="M17.5,32.5 L18.5,32.5 C19.0522847,32.5 19.5,32.9477153 19.5,33.5 L19.5,39.5 C19.5,40.0522847 19.0522847,40.5 18.5,40.5 L17.5,40.5 C16.9477153,40.5 16.5,40.0522847 16.5,39.5 L16.5,33.5 C16.5,32.9477153 16.9477153,32.5 17.5,32.5 Z" id="Rectangle-Copy-11" fill-rule="nonzero" transform="translate(18.000000, 36.500000) rotate(90.000000) translate(-18.000000, -36.500000) "></path>
                        </g>
                    </g>
                </g>
                <g id="Group-7" transform="translate(-0.000000, 0.000000)">
                    <g id="GR/Icon/Icon_bell_w" transform="translate(10.000000, 9.000000)">
                        <g id="Group-24">
                            <path d="M5.5,30.5 L30.5,30.5 L30.5,17 C30.5,10.0964406 24.9035594,4.5 18,4.5 C11.0964406,4.5 5.5,10.0964406 5.5,17 L5.5,30.5 Z" id="Rectangle" stroke="#101010" stroke-width="3"></path>
                            <rect id="Rectangle" fill="#101010" fill-rule="nonzero" x="16.5" y="0" width="3" height="9" rx="1"></rect>
                            <path d="M17.5,12.5 L18.5,12.5 C19.0522847,12.5 19.5,12.9477153 19.5,13.5 L19.5,47.5 C19.5,48.0522847 19.0522847,48.5 18.5,48.5 L17.5,48.5 C16.9477153,48.5 16.5,48.0522847 16.5,47.5 L16.5,13.5 C16.5,12.9477153 16.9477153,12.5 17.5,12.5 Z" id="Rectangle-Copy-10" fill="#101010" fill-rule="nonzero" transform="translate(18.000000, 30.500000) rotate(90.000000) translate(-18.000000, -30.500000) "></path>
                            <path d="M17.5,32.5 L18.5,32.5 C19.0522847,32.5 19.5,32.9477153 19.5,33.5 L19.5,39.5 C19.5,40.0522847 19.0522847,40.5 18.5,40.5 L17.5,40.5 C16.9477153,40.5 16.5,40.0522847 16.5,39.5 L16.5,33.5 C16.5,32.9477153 16.9477153,32.5 17.5,32.5 Z" id="Rectangle-Copy-11" fill="#101010" fill-rule="nonzero" transform="translate(18.000000, 36.500000) rotate(90.000000) translate(-18.000000, -36.500000) "></path>
                        </g>
                    </g>
                </g>
            </g>
            <g id="리뷰별점_on_off" transform="translate(4.000000, 98.000000)" fill-rule="nonzero">
                <g id="Group-3" opacity="0.799999952" transform="translate(1.987730, 0.000000)" fill="#B0B0B0" stroke="#808080" stroke-width="2">
                    <g id="GR/Icon/Icon_star_32_off-Copy-1">
                        <polygon id="Star-2" points="18.4041738 22.1614706 17.0717407 14.2469772 22.7295368 8.6284766 14.9120048 7.4712016 11.4294479 0.28232624 7.94689092 7.4712016 0.129358918 8.6284766 5.78715498 14.2469772 4.45472195 22.1614706 11.4294479 18.4258163"></polygon>
                    </g>
                    <g id="GR/Icon/Icon_star_32_off-Copy-1" transform="translate(33.791411, 0.000000)">
                        <polygon id="Star-2" points="18.4041738 22.1614706 17.0717407 14.2469772 22.7295368 8.6284766 14.9120048 7.4712016 11.4294479 0.28232624 7.94689092 7.4712016 0.129358918 8.6284766 5.78715498 14.2469772 4.45472195 22.1614706 11.4294479 18.4258163"></polygon>
                    </g>
                    <g id="GR/Icon/Icon_star_32_off-Copy-1" transform="translate(67.582822, 0.000000)">
                        <polygon id="Star-2" points="18.4041738 22.1614706 17.0717407 14.2469772 22.7295368 8.6284766 14.9120048 7.4712016 11.4294479 0.28232624 7.94689092 7.4712016 0.129358918 8.6284766 5.78715498 14.2469772 4.45472195 22.1614706 11.4294479 18.4258163"></polygon>
                    </g>
                    <g id="GR/Icon/Icon_star_32_off-Copy-1" transform="translate(101.374233, 0.000000)">
                        <polygon id="Star-2" points="18.4041738 22.1614706 17.0717407 14.2469772 22.7295368 8.6284766 14.9120048 7.4712016 11.4294479 0.28232624 7.94689092 7.4712016 0.129358918 8.6284766 5.78715498 14.2469772 4.45472195 22.1614706 11.4294479 18.4258163"></polygon>
                    </g>
                    <g id="GR/Icon/Icon_star_32_off-Copy-1" transform="translate(135.165644, 0.000000)">
                        <polygon id="Star-2" points="18.4041738 22.1614706 17.0717407 14.2469772 22.7295368 8.6284766 14.9120048 7.4712016 11.4294479 0.28232624 7.94689092 7.4712016 0.129358918 8.6284766 5.78715498 14.2469772 4.45472195 22.1614706 11.4294479 18.4258163"></polygon>
                    </g>
                </g>
                <g id="Group-2" transform="translate(0.000000, 30.000000)" fill="#008A00">
                    <g id="GR/Icon/Icon_star_32_on">
                        <polygon id="Star-2" points="13.4171779 21.5586698 5.12490593 26 6.70858896 16.5931116 0 9.9311163 9.27104195 8.5586698 13.4171779 0 17.5633139 8.5586698 26.8343558 9.9311163 20.1257669 16.5931116 21.7094499 26"></polygon>
                    </g>
                    <g id="GR/Icon/Icon_star_32_on" transform="translate(135.165644, 0.000000)">
                        <polygon id="Star-2" points="13.4171779 21.5586698 5.12490593 26 6.70858896 16.5931116 0 9.9311163 9.27104195 8.5586698 13.4171779 0 17.5633139 8.5586698 26.8343558 9.9311163 20.1257669 16.5931116 21.7094499 26"></polygon>
                    </g>
                    <g id="GR/Icon/Icon_star_32_on" transform="translate(33.791411, 0.000000)">
                        <polygon id="Star-2" points="13.4171779 21.5586698 5.12490593 26 6.70858896 16.5931116 0 9.9311163 9.27104195 8.5586698 13.4171779 0 17.5633139 8.5586698 26.8343558 9.9311163 20.1257669 16.5931116 21.7094499 26"></polygon>
                    </g>
                    <g id="GR/Icon/Icon_star_32_on" transform="translate(67.582822, 0.000000)">
                        <polygon id="Star-2" points="13.4171779 21.5586698 5.12490593 26 6.70858896 16.5931116 0 9.9311163 9.27104195 8.5586698 13.4171779 0 17.5633139 8.5586698 26.8343558 9.9311163 20.1257669 16.5931116 21.7094499 26"></polygon>
                    </g>
                    <g id="GR/Icon/Icon_star_32_on" transform="translate(101.374233, 0.000000)">
                        <polygon id="Star-2" points="13.4171779 21.5586698 5.12490593 26 6.70858896 16.5931116 0 9.9311163 9.27104195 8.5586698 13.4171779 0 17.5633139 8.5586698 26.8343558 9.9311163 20.1257669 16.5931116 21.7094499 26"></polygon>
                    </g>
                </g>
            </g>
            <g id="쉐프팁말풍선14*58" transform="translate(786.000000, 176.000000)" fill-rule="nonzero">
                <g id="Group-11" transform="translate(0.000000, -0.000000)">
                    <path d="M0,48 L13,48.0831292 L13,51.0936676 L6.67937484,57.5732875 C6.12404784,58.1425837 5.2123606,58.153908 4.6430644,57.598581 C4.52051141,57.4790352 4.42025845,57.3385929 4.34701329,57.1838493 L0,48 Z" id="Rectangle" fill="#215621" transform="translate(6.500000, 53.000000) scale(-1, 1) translate(-6.500000, -53.000000) "></path>
                    <path d="M2.88,-1.42108547e-14 L236.12,-1.42108547e-14 C237.71058,-1.45030395e-14 239,1.28941992 239,2.88 L239,51 L239,51 C239,49.5916395 237.858298,48.4499377 236.449938,48.4499377 L2.88,48.4499377 C1.28941992,48.4499377 -5.81117986e-13,47.1605178 -5.81312776e-13,45.5699377 L-5.97299987e-13,2.88 C-5.97494777e-13,1.28941992 1.28941992,-1.48068483e-14 2.88,-1.50990331e-14 Z" id="Rectangle" fill="#008A00" transform="translate(119.500000, 25.500000) scale(-1, 1) translate(-119.500000, -25.500000) "></path>
                </g>
            </g>
            <g id="마케팅메시지닫기버튼60*60" transform="translate(740.000000, 270.000000)">
                <g id="GR/Header/btn_close_64_w" transform="translate(10.000000, 10.000000)">
                    <g id="icon/header/menu_green">
                        <polygon id="Shape" points="0 0 40 0 40 40 0 40"></polygon>
                        <g id="Group" transform="translate(9.166667, 9.166667)" fill="#FFFFFF">
                            <polygon id="Rectangle-2" transform="translate(11.195857, 11.195857) rotate(-45.000000) translate(-11.195857, -11.195857) " points="10.362524 -3.80414263 12.0291907 -3.80414263 12.0291907 26.1958574 10.362524 26.1958574"></polygon>
                            <polygon id="Rectangle-2" transform="translate(11.195857, 11.195857) scale(-1, 1) rotate(-45.000000) translate(-11.195857, -11.195857) " points="10.362524 -3.80414263 12.0291907 -3.80414263 12.0291907 26.1958574 10.362524 26.1958574"></polygon>
                        </g>
                    </g>
                </g>
            </g>
            <g id="마케팅메시지98*36" transform="translate(450.000000, 0.000000)" fill="#FFFFFF">
                <g id="icon_mdtalk">
                    <path d="M13.1990172,26 L13.1572482,18.05 L9.3980344,24.5214286 L7.56019656,24.5214286 L3.82186732,18.2642857 L3.82186732,26 L0,26 L0,11 L3.4041769,11 L8.54176904,19.6571429 L13.5540541,11 L16.958231,11 L17,26 L13.1990172,26 Z M19,11 L25.8767313,11 C27.469537,11 28.8822653,11.3071398 30.1149584,11.9214286 C31.3476516,12.5357174 32.3033207,13.4071372 32.9819945,14.5357143 C33.6606682,15.6642914 34,16.9857067 34,18.5 C34,20.0142933 33.6606682,21.3357086 32.9819945,22.4642857 C32.3033207,23.5928628 31.3476516,24.4642826 30.1149584,25.0785714 C28.8822653,25.6928602 27.469537,26 25.8767313,26 L19,26 L19,11 Z M25.7006173,22 C26.9969201,22 28.0375475,21.6458369 28.8225309,20.9375 C29.6075142,20.2291631 30,19.2500063 30,18 C30,16.7499938 29.6075142,15.7708369 28.8225309,15.0625 C28.0375475,14.3541631 26.9969201,14 25.7006173,14 L23,14 L23,22 L25.7006173,22 Z M37.5110132,10 C38.2305469,10 38.8252546,10.2216242 39.2951542,10.6648794 C39.7650537,11.1081345 40,11.6872172 40,12.4021448 C40,12.7310115 39.9559476,13.0598732 39.8678414,13.3887399 C39.7797352,13.7176066 39.5888414,14.2108993 39.2951542,14.8686327 L37.8854626,18 L35.2643172,18 L36.2995595,14.5040214 C35.8883974,14.3181403 35.5690173,14.0428973 35.3414097,13.6782842 C35.1138021,13.3136711 35,12.8882955 35,12.4021448 C35,11.6872172 35.2349463,11.1081345 35.7048458,10.6648794 C36.1747454,10.2216242 36.7767952,10 37.5110132,10 Z M44.1968504,26 C43.2152182,26 42.2480363,25.8892868 41.2952756,25.6678571 C40.3425149,25.4464275 39.5774307,25.1571446 39,24.8 L40.234252,22.0142857 C40.7683754,22.3428588 41.4035396,22.6035705 42.1397638,22.7964286 C42.8759879,22.9892867 43.6049833,23.0857143 44.3267717,23.0857143 C44.990817,23.0857143 45.4635813,23.0178578 45.7450787,22.8821429 C46.0265762,22.7464279 46.1673228,22.5500013 46.1673228,22.2928571 C46.1673228,22.035713 45.9977051,21.853572 45.6584646,21.7464286 C45.319224,21.6392852 44.7814997,21.5357148 44.0452756,21.4357143 C43.1069507,21.321428 42.3093865,21.1714295 41.6525591,20.9857143 C40.9957316,20.7999991 40.4291362,20.4571454 39.9527559,19.9571429 C39.4763756,19.4571404 39.238189,18.7571474 39.238189,17.8571429 C39.238189,17.114282 39.46194,16.4535743 39.9094488,15.875 C40.3569576,15.2964257 41.0101663,14.8392874 41.8690945,14.5035714 C42.7280227,14.1678555 43.7565557,14 44.9547244,14 C45.8064347,14 46.6509144,14.0857134 47.488189,14.2571429 C48.3254635,14.4285723 49.0255877,14.671427 49.5885827,14.9857143 L48.3543307,17.75 C47.3149554,17.1785686 46.1889824,16.8928571 44.976378,16.8928571 C44.3267684,16.8928571 43.8503952,16.9678564 43.5472441,17.1178571 C43.244093,17.2678579 43.0925197,17.4642845 43.0925197,17.7071429 C43.0925197,17.9785728 43.2585285,18.1678566 43.5905512,18.275 C43.9225738,18.3821434 44.4711248,18.4928566 45.2362205,18.6071429 C46.2034169,18.7500007 47.00459,18.9142848 47.6397638,19.1 C48.2749376,19.2857152 48.8270974,19.6249975 49.2962598,20.1178571 C49.7654223,20.6107167 50,21.2999956 50,22.1857143 C50,22.9142894 49.776249,23.5678542 49.3287402,24.1464286 C48.8812314,24.7250029 48.2208049,25.1785698 47.3474409,25.5071429 C46.474077,25.8357159 45.4238906,26 44.1968504,26 Z M65,25.3541667 C64.6658916,25.562501 64.2587031,25.7222217 63.7784223,25.8333333 C63.2981415,25.944445 62.7865456,26 62.2436195,26 C60.7679741,26 59.6334146,25.6388925 58.8399072,24.9166667 C58.0463997,24.1944408 57.649652,23.1180627 57.649652,21.6875 L57.649652,17.8958333 L56,17.8958333 L56,14.9375 L57.649652,14.9375 L57.649652,12 L61.6171694,12 L61.6171694,14.9375 L64.2064965,14.9375 L64.2064965,17.8958333 L61.6171694,17.8958333 L61.6171694,21.6458333 C61.6171694,22.0486131 61.7250569,22.3645822 61.9408353,22.59375 C62.1566136,22.8229178 62.4454738,22.9375 62.8074246,22.9375 C63.2668236,22.9375 63.6705319,22.8194456 64.0185615,22.5833333 L65,25.3541667 Z M70.3469388,14 C72.1836827,14 73.5850292,14.4392813 74.5510204,15.3178571 C75.5170116,16.196433 76,17.5428481 76,19.3571429 L76,25.8071429 L72.3877551,25.8071429 L72.3877551,24.3071429 C71.8299292,25.4357199 70.7415047,26 69.122449,26 C68.2653018,26 67.5238127,25.8428587 66.8979592,25.5285714 C66.2721057,25.2142841 65.7993213,24.7892884 65.4795918,24.2535714 C65.1598623,23.7178545 65,23.1071463 65,22.4214286 C65,21.3214231 65.4013565,20.4678602 66.2040816,19.8607143 C67.0068067,19.2535684 68.2448896,18.95 69.9183673,18.95 L72.122449,18.95 C72.0544214,17.7214224 71.2721163,17.1071429 69.7755102,17.1071429 C69.2448953,17.1071429 68.7074857,17.1964277 68.1632653,17.375 C67.6190449,17.5535723 67.1564645,17.7999984 66.7755102,18.1142857 L65.4693878,15.35 C66.0816357,14.9214264 66.8265262,14.5892869 67.7040816,14.3535714 C68.581637,14.117856 69.4625806,14 70.3469388,14 Z M70.2909091,23 C70.6909111,23 71.0424227,22.9030313 71.3454545,22.7090909 C71.6484864,22.5151505 71.866666,22.2303049 72,21.8545455 L72,21 L70.5090909,21 C69.5030253,21 69,21.33333 69,22 C69,22.3030318 69.1151504,22.5454536 69.3454545,22.7272727 C69.5757587,22.9090918 69.8909071,23 70.2909091,23 Z M78,10 L82,10 L82,26 L78,26 L78,10 Z M89.0923567,21.902965 L87.933121,23.1320755 L87.933121,26 L84,26 L84,10 L87.933121,10 L87.933121,18.3881402 L91.9490446,14.3126685 L96.6066879,14.3126685 L91.9490446,19.3153639 L97,26 L92.2388535,26 L89.0923567,21.902965 Z" id="MD’s-talk"></path>
                </g>
            </g>
            <g id="플로팅모듈-닫기버튼-60*60" transform="translate(572.000000, 478.000000)">
                <g id="GR/Header/btn_close_64-Copy-1" transform="translate(10.000000, 10.000000)">
                    <g id="icon/header/menu_green">
                        <polygon id="Shape" points="0 0 40 0 40 40 0 40"></polygon>
                        <g id="Group" transform="translate(9.166667, 9.166667)" fill="#606060">
                            <polygon id="Rectangle-2" transform="translate(11.195857, 11.195857) rotate(-45.000000) translate(-11.195857, -11.195857) " points="10.362524 -3.80414263 12.0291907 -3.80414263 12.0291907 26.1958574 10.362524 26.1958574"></polygon>
                            <polygon id="Rectangle-2" transform="translate(11.195857, 11.195857) scale(-1, 1) rotate(-45.000000) translate(-11.195857, -11.195857) " points="10.362524 -3.80414263 12.0291907 -3.80414263 12.0291907 26.1958574 10.362524 26.1958574"></polygon>
                        </g>
                    </g>
                </g>
            </g>
            <g id="복합모듈plus아이콘56*56" transform="translate(360.000000, 100.000000)">
                <circle id="Oval" fill="#BDD61A" cx="28" cy="28" r="28"></circle>
                <g id="icon_plus" transform="translate(16.000000, 16.000000)" fill="#202020">
                    <rect id="Rectangle" x="0" y="10" width="24" height="4"></rect>
                    <rect id="Rectangle" x="10" y="0" width="4" height="24"></rect>
                </g>
            </g>
        </g>
    </g>
</svg>